<svg xmlns="http://www.w3.org/2000/svg"  viewBox="0 0 40 40" width="160px" height="160px"><path fill="#f5ce85" d="M28.441,10.853c-0.559,0-1.029-0.471-1.029-1.029s0.471-1.029,1.029-1.029 c0.735,0,1.029,0.176,1.029,0.647C29.471,10.059,28.971,10.853,28.441,10.853z M22.559,10.853c-0.529,0-1.029-0.794-1.029-1.412 c0-0.471,0.294-0.647,1.029-0.647c0.559,0,1.029,0.471,1.029,1.029S23.118,10.853,22.559,10.853z"/><path fill="#967a44" d="M28.441,11.353c-0.829,0-1.53-0.7-1.53-1.529s0.701-1.529,1.53-1.529 c1.015,0,1.529,0.386,1.529,1.147C29.971,10.307,29.289,11.353,28.441,11.353z M28.441,9.294c-0.282,0-0.53,0.247-0.53,0.529 s0.248,0.529,0.53,0.529c0.158,0,0.529-0.477,0.529-0.911C28.967,9.365,28.875,9.294,28.441,9.294z M22.559,11.353 c-0.847,0-1.529-1.046-1.529-1.911c0-0.762,0.515-1.147,1.529-1.147c0.829,0,1.53,0.7,1.53,1.529S23.388,11.353,22.559,11.353z M22.559,9.294c-0.433,0-0.526,0.071-0.53,0.074c0,0.508,0.372,0.984,0.53,0.984c0.282,0,0.53-0.247,0.53-0.529 S22.841,9.294,22.559,9.294z"/><path fill="#f5ce85" d="M25.529,13.794c-0.265,0-0.559-0.118-0.735-0.353l-0.029-0.029h-0.059 c-1.529-0.382-2.588-1.735-2.588-3.294V7.029c0-0.853,0.676-1.529,1.529-1.529h3.706c0.853,0,1.529,0.676,1.529,1.529v3.088 c0,1.559-1.059,2.912-2.588,3.294h-0.059l-0.029,0.029C26.088,13.676,25.794,13.794,25.529,13.794z"/><path fill="#967a44" d="M25.529,14.294c-0.381,0-0.756-0.156-1.016-0.415c-1.708-0.462-2.896-1.998-2.896-3.762V7.029 C21.618,5.892,22.509,5,23.647,5h3.706c1.138,0,2.029,0.892,2.029,2.029v3.088c0,1.754-1.173,3.283-2.866,3.753 C26.29,14.133,25.926,14.294,25.529,14.294z M24.77,12.912h0.143l0.281,0.229c0.171,0.228,0.542,0.114,0.565,0.076l0.094-0.13 l0.146-0.146l0.236-0.029c1.238-0.311,2.147-1.466,2.147-2.795V7.029C28.382,6.452,27.93,6,27.353,6h-3.706 c-0.577,0-1.029,0.452-1.029,1.029v3.088C22.618,11.427,23.5,12.567,24.77,12.912z"/><path fill="#a6714e" d="M28.897,10.235v-1c0-1.529-1.529-2.324-1.588-2.353l-0.088-0.029l-0.059,0.029 c0,0-1.206,0.853-3.147,0.853c-0.853,0-1.882,0.471-1.882,1.794v0.706h-0.029c-0.118-0.412-0.559-2.088-0.559-3.353 c0-1.676,1.294-3.382,3.765-3.382c1.706,0,2.176,1.029,2.176,1.088l0.029,0.088h0.088c0.912,0,1.853,0.765,1.853,2.235 c0,1.147-0.423,2.853-0.54,3.324H28.897z"/><path fill="#7a4f34" d="M29.306,10.735h-0.909v-1.5c0-0.966-0.806-1.588-1.154-1.812c-0.449,0.256-1.602,0.812-3.228,0.812 c-0.324,0-1.382,0.094-1.382,1.294v1.206h-0.877l-0.133-0.362c-0.059-0.208-0.578-2.066-0.578-3.49c0-1.93,1.465-3.883,4.265-3.883 c1.508,0,2.261,0.707,2.542,1.201c1.104,0.158,2.105,1.097,2.105,2.711c0,0.558-0.096,1.608-0.556,3.444L29.306,10.735z M25.309,4 c-2.143,0-3.265,1.45-3.265,2.883c0,0.353,0.039,0.754,0.098,1.157c0.466-0.547,1.185-0.805,1.873-0.805 c1.743,0,2.849-0.754,2.86-0.762l0.308-0.163l0.349,0.124c0.05,0.025,0.841,0.426,1.377,1.225c0.036-0.32,0.048-0.564,0.048-0.747 c0-1.14-0.681-1.735-1.353-1.735h-0.362l-0.229-0.434C27.005,4.729,26.665,4,25.309,4z"/><path fill="#f5ce85" d="M17.441,10.853c-0.559,0-1.029-0.471-1.029-1.029s0.471-1.029,1.029-1.029 c0.735,0,1.029,0.176,1.029,0.647C18.471,10.059,17.971,10.853,17.441,10.853z M11.559,10.853c-0.529,0-1.029-0.794-1.029-1.412 c0-0.471,0.294-0.647,1.029-0.647c0.559,0,1.029,0.471,1.029,1.029S12.118,10.853,11.559,10.853z"/><path fill="#967a44" d="M17.441,11.353c-0.829,0-1.53-0.7-1.53-1.529s0.701-1.529,1.53-1.529 c1.015,0,1.529,0.386,1.529,1.147C18.971,10.307,18.289,11.353,17.441,11.353z M17.441,9.294c-0.282,0-0.53,0.247-0.53,0.529 s0.248,0.529,0.53,0.529c0.158,0,0.529-0.477,0.529-0.911C17.967,9.365,17.875,9.294,17.441,9.294z M11.559,11.353 c-0.847,0-1.529-1.046-1.529-1.911c0-0.762,0.515-1.147,1.529-1.147c0.829,0,1.53,0.7,1.53,1.529S12.388,11.353,11.559,11.353z M11.559,9.294c-0.433,0-0.526,0.071-0.53,0.074c0,0.508,0.372,0.984,0.53,0.984c0.282,0,0.53-0.247,0.53-0.529 S11.841,9.294,11.559,9.294z"/><path fill="#f5ce85" d="M14.529,13.794c-0.265,0-0.559-0.118-0.735-0.353l-0.029-0.029h-0.059 c-1.529-0.382-2.588-1.735-2.588-3.294V7.029c0-0.853,0.676-1.529,1.529-1.529h3.706c0.853,0,1.529,0.676,1.529,1.529v3.088 c0,1.559-1.059,2.912-2.588,3.294h-0.059l-0.029,0.029C15.088,13.676,14.794,13.794,14.529,13.794z"/><path fill="#967a44" d="M14.529,14.294c-0.381,0-0.756-0.156-1.016-0.415c-1.708-0.462-2.896-1.998-2.896-3.762V7.029 C10.618,5.892,11.509,5,12.647,5h3.706c1.138,0,2.029,0.892,2.029,2.029v3.088c0,1.754-1.173,3.283-2.866,3.753 C15.29,14.133,14.926,14.294,14.529,14.294z M13.77,12.912h0.143l0.281,0.229c0.17,0.228,0.542,0.114,0.565,0.076l0.094-0.13 l0.146-0.146l0.236-0.029c1.238-0.311,2.147-1.466,2.147-2.795V7.029C17.382,6.452,16.93,6,16.353,6h-3.706 c-0.577,0-1.029,0.452-1.029,1.029v3.088C11.618,11.427,12.5,12.567,13.77,12.912z"/><path fill="#a6714e" d="M17.897,10.235v-1c0-1.529-1.529-2.324-1.588-2.353l-0.088-0.029l-0.059,0.029 c0,0-1.206,0.853-3.147,0.853c-0.853,0-1.882,0.471-1.882,1.794v0.706h-0.029c-0.118-0.412-0.559-2.088-0.559-3.353 c0-1.676,1.294-3.382,3.765-3.382c1.706,0,2.176,1.029,2.176,1.088l0.029,0.088h0.088c0.912,0,1.853,0.765,1.853,2.235 c0,1.147-0.423,2.853-0.54,3.324H17.897z"/><path fill="#7a4f34" d="M18.306,10.735h-0.909v-1.5c0-0.966-0.806-1.588-1.154-1.812c-0.449,0.256-1.602,0.812-3.228,0.812 c-0.324,0-1.382,0.094-1.382,1.294v1.206h-0.877l-0.133-0.362c-0.059-0.208-0.578-2.066-0.578-3.49c0-1.93,1.465-3.883,4.265-3.883 c1.508,0,2.261,0.707,2.542,1.201c1.104,0.158,2.105,1.097,2.105,2.711c0,0.558-0.096,1.608-0.556,3.444L18.306,10.735z M14.309,4 c-2.143,0-3.265,1.45-3.265,2.883c0,0.353,0.039,0.754,0.098,1.157c0.466-0.547,1.185-0.805,1.873-0.805 c1.743,0,2.849-0.754,2.86-0.762l0.308-0.163l0.349,0.124c0.05,0.025,0.841,0.426,1.377,1.225c0.036-0.32,0.048-0.564,0.048-0.747 c0-1.14-0.681-1.735-1.353-1.735h-0.362l-0.229-0.434C16.005,4.729,15.665,4,14.309,4z"/><path fill="#8bb7f0" d="M26.5,29.5c0.091-2.509,2.147-4.535,4.686-4.535h3.628c2.54,0,4.595,2.026,4.686,4.535H26.5z"/><path fill="#4e7ab5" d="M40.019,30H25.981L26,29.481c0.102-2.813,2.379-5.017,5.186-5.017h3.628 c2.806,0,5.084,2.204,5.186,5.017L40.019,30z M27.05,29h11.9c-0.319-2.02-2.046-3.535-4.136-3.535h-3.628 C29.096,25.465,27.369,26.98,27.05,29z"/><path fill="#deb974" d="M33,26.5c-1.967,0-2.433-1.167-2.5-1.3v-2.5h5v2.467C35.433,25.367,34.967,26.5,33,26.5z"/><path fill="#967a44" d="M33,27c-1.914,0-2.664-0.979-2.941-1.563L30,25.2v-3h6l-0.026,3.126C35.88,25.605,35.296,27,33,27z M31,25.078C31.342,25.684,32.042,26,33,26c1.455,0,1.894-0.696,2-0.928V23.2h-4V25.078z"/><path fill="#deb974" d="M36.235,21.588c-0.615,0-1.132-0.518-1.132-1.132c0-0.615,0.518-1.132,1.132-1.132 c0.809,0,1.132,0.194,1.132,0.712C37.368,20.715,36.818,21.588,36.235,21.588z M29.765,21.588c-0.582,0-1.132-0.874-1.132-1.553 c0-0.518,0.324-0.712,1.132-0.712c0.615,0,1.132,0.518,1.132,1.132C30.897,21.071,30.379,21.588,29.765,21.588z"/><path fill="#967a44" d="M36.235,22.088c-0.885,0-1.632-0.747-1.632-1.632s0.748-1.633,1.632-1.633 c0.404,0,1.632,0,1.632,1.212C37.868,20.965,37.14,22.088,36.235,22.088z M36.235,19.823c-0.337,0-0.632,0.296-0.632,0.633 s0.295,0.632,0.632,0.632c0.22,0,0.632-0.558,0.632-1.053c0-0.09-0.016-0.117-0.016-0.118 C36.851,19.917,36.76,19.823,36.235,19.823z M29.765,22.088c-0.904,0-1.632-1.123-1.632-2.053c0-1.212,1.229-1.212,1.632-1.212 c0.885,0,1.632,0.748,1.632,1.633S30.649,22.088,29.765,22.088z M29.148,19.918c0,0-0.016,0.028-0.016,0.117 c0,0.495,0.413,1.053,0.632,1.053c0.337,0,0.632-0.295,0.632-0.632s-0.295-0.633-0.632-0.633 C29.24,19.823,29.149,19.917,29.148,19.918L29.148,19.918z"/><path fill="#f5ce85" d="M33.03,24.5c-0.274,0-0.578-0.122-0.761-0.365l-0.03-0.03h-0.061 c-1.583-0.396-2.678-1.796-2.678-3.409V17.5c0-0.883,0.7-1.583,1.583-1.583h3.835c0.883,0,1.583,0.7,1.583,1.583v3.196 c0,1.613-1.096,3.013-2.678,3.409h-0.061l-0.03,0.03C33.609,24.378,33.304,24.5,33.03,24.5z"/><path fill="#967a44" d="M33.03,25c-0.391,0-0.776-0.161-1.042-0.428C30.225,24.099,29,22.515,29,20.695V17.5 c0-1.168,0.915-2.083,2.083-2.083h3.835c1.168,0,2.083,0.915,2.083,2.083v3.195c0,1.81-1.211,3.386-2.959,3.868 C33.811,24.834,33.438,25,33.03,25z M32.242,23.604h0.143l0.284,0.23c0.186,0.248,0.589,0.125,0.614,0.076l0.094-0.13l0.146-0.146 l0.237-0.03C35.054,23.281,36,22.079,36,20.695V17.5c0-0.607-0.476-1.083-1.083-1.083h-3.835C30.476,16.417,30,16.893,30,17.5 v3.195C30,22.059,30.919,23.247,32.242,23.604z"/><path fill="#a6714e" d="M36.521,20.481v-1.036c0-1.585-1.585-2.408-1.646-2.439l-0.091-0.03l-0.061,0.03 c0,0-1.25,0.884-3.262,0.884c-0.884,0-1.951,0.488-1.951,1.859v0.732h-0.03c-0.122-0.427-0.579-2.164-0.579-3.475 c0-1.738,1.341-3.506,3.902-3.506c1.768,0,2.256,1.067,2.256,1.128l0.03,0.091h0.091c0.945,0,1.92,0.793,1.92,2.317 c0,1.189-0.438,2.957-0.56,3.445H36.521z"/><path fill="#7a4f34" d="M36.93,20.98h-0.909v-1.536c0-1.019-0.855-1.671-1.214-1.899c-0.458,0.263-1.653,0.845-3.346,0.845 c-0.34,0-1.451,0.098-1.451,1.359v1.231h-0.877l-0.134-0.363c-0.061-0.215-0.598-2.142-0.598-3.611c0-1.99,1.512-4.006,4.402-4.006 c1.536,0,2.323,0.737,2.617,1.242c1.143,0.156,2.182,1.124,2.182,2.794c0,0.831-0.199,2.064-0.575,3.565L36.93,20.98z M32.802,14 c-2.233,0-3.402,1.512-3.402,3.006c0,0.378,0.043,0.81,0.107,1.242c0.478-0.583,1.232-0.858,1.953-0.858 c1.832,0,2.962-0.784,2.973-0.792l0.311-0.165l0.353,0.125c0.053,0.026,0.895,0.454,1.447,1.305 c0.042-0.356,0.056-0.626,0.056-0.826c0-1.192-0.714-1.816-1.42-1.816h-0.362l-0.234-0.438C34.581,14.774,34.23,14,32.802,14z"/><g><path fill="#8bb7f0" d="M0.5,29.5c0.091-2.509,2.147-4.535,4.686-4.535h3.628c2.54,0,4.595,2.026,4.686,4.535H0.5z"/><path fill="#4e7ab5" d="M14.019,30H-0.019L0,29.481c0.102-2.813,2.379-5.017,5.186-5.017h3.628 c2.806,0,5.084,2.204,5.186,5.017L14.019,30z M1.05,29h11.9c-0.319-2.02-2.046-3.535-4.136-3.535H5.186 C3.096,25.465,1.369,26.98,1.05,29z"/></g><g><path fill="#deb974" d="M7,26.5c-1.967,0-2.433-1.167-2.5-1.3v-2.5h5v2.467C9.433,25.367,8.967,26.5,7,26.5z"/><path fill="#967a44" d="M7,27c-1.914,0-2.664-0.979-2.941-1.563L4,25.2v-3h6l-0.026,3.126C9.88,25.605,9.296,27,7,27z M5,25.078C5.342,25.684,6.042,26,7,26c1.455,0,1.894-0.696,2-0.928V23.2H5V25.078z"/></g><g><path fill="#deb974" d="M10.235,21.588c-0.615,0-1.132-0.518-1.132-1.132c0-0.615,0.518-1.132,1.132-1.132 c0.809,0,1.132,0.194,1.132,0.712C11.368,20.715,10.818,21.588,10.235,21.588z M3.765,21.588c-0.582,0-1.132-0.874-1.132-1.553 c0-0.518,0.324-0.712,1.132-0.712c0.615,0,1.132,0.518,1.132,1.132C4.897,21.071,4.379,21.588,3.765,21.588z"/><path fill="#967a44" d="M10.235,22.088c-0.885,0-1.632-0.747-1.632-1.632s0.748-1.633,1.632-1.633 c0.404,0,1.632,0,1.632,1.212C11.868,20.965,11.14,22.088,10.235,22.088z M10.235,19.823c-0.337,0-0.632,0.296-0.632,0.633 s0.295,0.632,0.632,0.632c0.22,0,0.632-0.558,0.632-1.053c0-0.09-0.016-0.117-0.016-0.118 C10.851,19.917,10.76,19.823,10.235,19.823z M3.765,22.088c-0.904,0-1.632-1.123-1.632-2.053c0-1.212,1.229-1.212,1.632-1.212 c0.885,0,1.632,0.748,1.632,1.633S4.649,22.088,3.765,22.088z M3.148,19.918c0,0-0.016,0.028-0.016,0.117 c0,0.495,0.413,1.053,0.632,1.053c0.337,0,0.632-0.295,0.632-0.632s-0.295-0.633-0.632-0.633 C3.24,19.823,3.149,19.917,3.148,19.918L3.148,19.918z"/></g><g><path fill="#f5ce85" d="M7.03,24.5c-0.274,0-0.578-0.122-0.761-0.365l-0.03-0.03H6.178C4.596,23.709,3.5,22.309,3.5,20.696 V17.5c0-0.883,0.7-1.583,1.583-1.583h3.835c0.883,0,1.583,0.7,1.583,1.583v3.196c0,1.613-1.096,3.013-2.678,3.409H7.761l-0.03,0.03 C7.609,24.378,7.304,24.5,7.03,24.5z"/><path fill="#967a44" d="M7.03,25c-0.391,0-0.776-0.161-1.042-0.428C4.225,24.099,3,22.515,3,20.695V17.5 c0-1.168,0.915-2.083,2.083-2.083h3.835c1.168,0,2.083,0.915,2.083,2.083v3.195c0,1.81-1.211,3.386-2.959,3.868 C7.811,24.834,7.438,25,7.03,25z M6.242,23.604h0.143l0.284,0.23c0.187,0.248,0.589,0.125,0.614,0.076l0.094-0.13l0.146-0.146 l0.237-0.03C9.054,23.281,10,22.079,10,20.695V17.5c0-0.607-0.476-1.083-1.083-1.083H5.083C4.476,16.417,4,16.893,4,17.5v3.195 C4,22.059,4.919,23.247,6.242,23.604z"/></g><g><path fill="#a6714e" d="M10.521,20.481v-1.036c0-1.585-1.585-2.408-1.646-2.439l-0.091-0.03l-0.061,0.03 c0,0-1.25,0.884-3.262,0.884c-0.884,0-1.951,0.488-1.951,1.859v0.732h-0.03C3.357,20.054,2.9,18.316,2.9,17.006 c0-1.738,1.341-3.506,3.902-3.506c1.768,0,2.256,1.067,2.256,1.128l0.03,0.091H9.18c0.945,0,1.92,0.793,1.92,2.317 c0,1.189-0.438,2.957-0.56,3.445H10.521z"/><path fill="#7a4f34" d="M10.93,20.98h-0.909v-1.536c0-1.019-0.855-1.671-1.214-1.899C8.349,17.808,7.153,18.39,5.46,18.39 c-0.34,0-1.451,0.098-1.451,1.359v1.231H3.132l-0.134-0.363C2.937,20.402,2.4,18.476,2.4,17.006C2.4,15.016,3.912,13,6.802,13 c1.536,0,2.323,0.737,2.617,1.242c1.143,0.156,2.182,1.124,2.182,2.794c0,0.831-0.199,2.064-0.575,3.565L10.93,20.98z M6.802,14 C4.568,14,3.4,15.512,3.4,17.006c0,0.378,0.043,0.81,0.107,1.242C3.985,17.665,4.74,17.39,5.46,17.39 c1.832,0,2.962-0.784,2.973-0.792l0.311-0.165l0.353,0.125c0.053,0.026,0.895,0.454,1.447,1.305 c0.042-0.356,0.056-0.626,0.056-0.826c0-1.192-0.714-1.816-1.42-1.816H8.818l-0.234-0.438C8.581,14.774,8.23,14,6.802,14z"/></g><g><path fill="#c2e8ff" d="M10.725,37.5c0.129-3.58,3.063-6.471,6.686-6.471h5.176c3.624,0,6.557,2.89,6.686,6.471H10.725z"/><path fill="#7496c4" d="M29.793,38H10.207l0.019-0.518c0.141-3.899,3.297-6.953,7.186-6.953h5.177 c3.889,0,7.045,3.054,7.186,6.953L29.793,38z M11.265,37h17.47c-0.366-3.106-2.973-5.471-6.146-5.471h-5.177 C14.238,31.529,11.631,33.894,11.265,37z"/></g><g><path fill="#ffdea3" d="M20,33.5c-2.753,0-3.407-1.633-3.5-1.82v-3.5h7v3.453C23.407,31.913,22.753,33.5,20,33.5z"/><path fill="#967a44" d="M20,34c-2.572,0-3.571-1.301-3.938-2.076L16,31.68v-4h8l-0.026,4.112C23.851,32.161,23.081,34,20,34 z M17,31.562C17.501,32.503,18.555,33,20,33c2.225,0,2.854-1.095,3-1.455V28.68h-6V31.562z"/></g><g><path fill="#ffdea3" d="M24.074,26.426c-0.774,0-1.426-0.652-1.426-1.426s0.652-1.426,1.426-1.426 c1.019,0,1.426,0.244,1.426,0.896C25.5,25.326,24.807,26.426,24.074,26.426z M15.926,26.426c-0.733,0-1.426-1.1-1.426-1.956 c0-0.652,0.407-0.896,1.426-0.896c0.774,0,1.426,0.652,1.426,1.426S16.7,26.426,15.926,26.426z"/><path fill="#967a44" d="M24.074,26.926c-1.044,0-1.926-0.882-1.926-1.926s0.882-1.926,1.926-1.926 c0.527,0,1.926,0,1.926,1.396C26,25.576,25.111,26.926,24.074,26.926z M24.074,24.074c-0.502,0-0.926,0.424-0.926,0.926 s0.424,0.926,0.926,0.926c0.366,0,0.926-0.78,0.926-1.455C25,24.258,25,24.074,24.074,24.074z M15.926,26.926 c-1.037,0-1.926-1.35-1.926-2.455c0-1.396,1.399-1.396,1.926-1.396c1.044,0,1.926,0.882,1.926,1.926S16.97,26.926,15.926,26.926z M15.926,24.074C15,24.074,15,24.258,15,24.471c0,0.675,0.56,1.455,0.926,1.455c0.502,0,0.926-0.424,0.926-0.926 S16.428,24.074,15.926,24.074z"/></g><g><path fill="#ffdea3" d="M20.039,30.5c-0.352,0-0.704-0.157-0.978-0.47l-0.039-0.039h-0.078 c-2.035-0.509-3.443-2.309-3.443-4.383V21.5c0-1.135,0.9-2.035,2.035-2.035h4.93c1.135,0,2.035,0.9,2.035,2.035v4.109 c0,2.074-1.409,3.874-3.443,4.383h-0.078l-0.039,0.039C20.743,30.343,20.391,30.5,20.039,30.5z"/><path fill="#967a44" d="M20.039,31c-0.466,0-0.906-0.188-1.253-0.533C16.555,29.892,15,27.899,15,25.608V21.5 c0-1.422,1.113-2.535,2.535-2.535h4.931c1.421,0,2.535,1.113,2.535,2.535v4.108c0,2.278-1.537,4.261-3.748,4.849 C20.99,30.786,20.538,31,20.039,31z M19.007,29.491h0.144l0.225,0.146c0.447,0.496,0.95,0.43,1.139,0.128l0.217-0.235l0.246-0.039 C22.74,29.055,24,27.452,24,25.608V21.5c0-0.86-0.674-1.535-1.535-1.535h-4.931C16.674,19.965,16,20.64,16,21.5v4.108 C16,27.433,17.233,29.021,19.007,29.491z"/></g><g><path fill="#f5ce85" d="M24.706,24.87v-1.426c0-2.119-2.119-3.219-2.2-3.259l-0.122-0.041l-0.081,0.041 c0,0-1.67,1.181-4.359,1.181c-1.181,0-2.607,0.652-2.607,2.485v0.978h-0.041c-0.163-0.57-0.774-2.893-0.774-4.644 c0-2.322,1.793-4.685,5.215-4.685c2.363,0,3.015,1.426,3.015,1.507l0.041,0.122h0.122c1.263,0,2.567,1.059,2.567,3.096 c0,1.589-0.566,3.993-0.729,4.644H24.706z"/><path fill="#967a44" d="M25.141,25.37h-0.935v-1.926c0-1.539-1.351-2.474-1.788-2.734c-0.534,0.317-2.142,1.156-4.476,1.156 c-0.352,0-2.107,0.096-2.107,1.985v1.479h-0.877l-0.144-0.362c-0.081-0.285-0.793-2.835-0.793-4.782 c0-2.577,1.963-5.186,5.715-5.186c2.074,0,3.077,1.02,3.396,1.639c1.449,0.112,2.848,1.339,2.848,3.587 c0,1.708-0.62,4.27-0.744,4.766L25.141,25.37z M19.735,16c-3.095,0-4.715,2.105-4.715,4.186c0,0.631,0.087,1.369,0.209,2.084 c0.561-0.959,1.64-1.403,2.713-1.403c2.481,0,4.056-1.079,4.072-1.09l0.331-0.172l0.32,0.107c0.065,0.028,1.488,0.742,2.176,2.155 c0.082-0.573,0.139-1.149,0.139-1.642c0-1.704-1.04-2.596-2.066-2.596H22.43l-0.166-0.498C22.192,16.989,21.624,16,19.735,16z"/></g></svg>