<svg xmlns="http://www.w3.org/2000/svg" xmlns:xlink="http://www.w3.org/1999/xlink" width="96" height="96" viewBox="0 0 96 96"><defs><linearGradient id="b" x1="0" x2="64" y1="988.362" y2="1052.362" gradientTransform="matrix(1.5 0 0 1.5 0 -526.181)" gradientUnits="userSpaceOnUse" xlink:href="#a"/><linearGradient id="a"><stop offset="0" stop-color="#ff1975"/><stop offset="1" stop-color="#ff681c"/></linearGradient></defs><g transform="translate(0 -956.362)"><rect width="96" height="96" y="956.362" fill="url(#b)" color="#000" enable-background="accumulate" overflow="visible" rx="18" ry="18" style="isolation:auto;mix-blend-mode:normal;solid-color:#000;solid-opacity:1"/><path style="line-height:normal;text-indent:0;text-align:start;text-decoration-line:none;text-decoration-style:solid;text-decoration-color:#000;text-transform:none;block-progression:tb;white-space:normal;isolation:auto;mix-blend-mode:normal;solid-color:#000;solid-opacity:1" fill="#fff" fill-rule="evenodd" d="m 46.694243,975.35723 a 0.50005,0.50005 0 0 0 -0.492187,0.50781 l 0,5.0625 a 0.50005,0.50005 0 1 0 1,0 l 0,-5.0625 a 0.50005,0.50005 0 0 0 -0.507813,-0.50781 z m 27.404297,0.21679 c -1.082614,0 -1.972656,0.88809 -1.972656,1.97071 0,1.08261 0.890042,1.9707 1.972656,1.9707 1.082615,0 1.970703,-0.88809 1.970703,-1.9707 0,-1.08262 -0.888088,-1.97071 -1.970703,-1.97071 z m -51.798828,0.15625 a 0.50064427,0.50064427 0 1 0 0.05078,1 l 3.169922,0 a 0.50004997,0.50004997 0 1 0 0,-1 l -3.169922,0 a 0.50004997,0.50004997 0 0 0 -0.05078,0 z m 4.798828,0 a 0.50064429,0.50064429 0 1 0 0.05078,1 l 9.046875,0 a 0.50004997,0.50004997 0 1 0 0,-1 l -9.046875,0 a 0.50004997,0.50004997 0 0 0 -0.05078,0 z m 47,0.84375 c 0.542175,0 0.970704,0.42853 0.970703,0.97071 0,0.54217 -0.428528,0.9707 -0.970703,0.9707 -0.542174,0 -0.972656,-0.42853 -0.972656,-0.9707 0,-0.54218 0.430482,-0.97071 0.972656,-0.97071 z m -47.839843,1.15625 a 0.50064426,0.50064426 0 1 0 0.05078,1 l 6.15625,0 a 0.50004997,0.50004997 0 1 0 0,-1 l -6.15625,0 a 0.50004997,0.50004997 0 0 0 -0.05078,0 z m 7.757812,0 a 0.50064426,0.50064426 0 1 0 0.05078,1 l 2.5625,0 a 0.50004997,0.50004997 0 1 0 0,-1 l -2.5625,0 a 0.50004997,0.50004997 0 0 0 -0.05078,0 z m 27.175781,0.83985 0,0.002 c -6.34996,0 -11.507811,5.16757 -11.507812,11.52727 0.0062,4.3221 2.454118,8.2346 6.275391,10.20121 l -0.0059,3.1172 0.150391,0 c -0.686185,0 -1.251953,0.5702 -1.251953,1.2559 0,0.1079 0.01859,0.2103 0.04492,0.3105 -0.516636,0.1548 -0.900391,0.6347 -0.900391,1.1973 0,0.5905 0.452565,1.0248 1.007812,1.1523 -0.04392,0.1271 -0.152343,0.2224 -0.152343,0.3633 0,0.6537 0.527374,1.171 1.169922,1.2207 -0.02921,0.1052 -0.123047,0.1792 -0.123047,0.293 0,0.6858 0.565848,1.2558 1.251953,1.2558 l 1.236328,0 0.224609,1.2364 a 0.50004997,0.50004997 0 0 0 0.492188,0.4101 l 1.597656,0 0,12.2441 -0.890625,0 c -0.777366,0 -1.417969,0.6427 -1.417969,1.42 l 0,0.8593 -24.40039,0 0,-0.8593 c 0,-0.7773 -0.640603,-1.42 -1.417969,-1.42 l -0.867188,0 0,-10.373 3.138672,0 c 2.130569,0 3.777714,-1.7374 3.861328,-3.8418 l 0.166016,-4.1894 c 0.07193,-0.087 0.17818,-0.1469 0.238281,-0.2579 0.126365,-0.2334 0.222656,-0.5271 0.222657,-0.8632 l 0,-0.8594 c 0,-0.9089 -0.747357,-1.6563 -1.65625,-1.6563 l -0.822266,0 0,-4.59371 c 0,-0.9841 -0.692001,-1.8692 -1.648438,-1.8692 -0.956437,0 -1.648437,0.8851 -1.648437,1.8692 l 0,4.59371 -4.703125,0 0,-4.59371 c 0,-0.9841 -0.692001,-1.8692 -1.648438,-1.8692 -0.956437,0 -1.648437,0.8851 -1.648437,1.8692 l 0,4.59371 -0.822266,0 c -0.908893,0 -1.65625,0.7474 -1.65625,1.6563 l 0,0.8594 c 1e-6,0.3361 0.09629,0.6297 0.222657,0.8632 0.05999,0.1109 0.166498,0.1714 0.238281,0.2579 l 0.166016,4.1894 c 0.08361,2.1044 1.730759,3.8418 3.861327,3.8418 l 3.138672,0 0,10.373 -0.898437,0 c -0.777367,0 -1.417969,0.6427 -1.417969,1.42 l 0,2.7656 c 0,0.7773 0.640602,1.418 1.417969,1.418 l 2.765625,0 c 0.777366,0 1.417969,-0.6407 1.417969,-1.418 l 0,-0.9063 24.40039,0 0,0.9063 c 0,0.7773 0.640603,1.418 1.417969,1.418 l 2.767578,0 c 0.777367,0 1.417969,-0.6407 1.417969,-1.418 l 0,-2.7656 c 0,-0.7773 -0.640602,-1.42 -1.417969,-1.42 l -0.876953,0 0,-12.2441 1.576172,0 a 0.50004997,0.50004997 0 0 0 0.492187,-0.4101 l 0.22461,-1.2364 1.236328,0 c 0.686105,0 1.251953,-0.57 1.251953,-1.2558 0,-0.1138 -0.09383,-0.1878 -0.123047,-0.293 0.64263,-0.05 1.169922,-0.5669 1.169922,-1.2207 0,-0.1408 -0.106567,-0.2364 -0.150391,-0.3633 0.554526,-0.1281 1.007813,-0.5622 1.007813,-1.1523 0,-0.5626 -0.385238,-1.0425 -0.902344,-1.1973 0.02663,-0.1008 0.04492,-0.2039 0.04492,-0.3125 0,-0.6296 -0.496548,-1.1122 -1.105469,-1.1953 l 0,-3.1719 c 3.82287,-1.96731 6.271056,-5.88301 6.275391,-10.20701 -10e-7,-6.3597 -5.157855,-11.52732 -11.507813,-11.52732 z m 0,1.00195 c 5.808552,0 10.507812,4.70702 10.507813,10.52732 -0.0048,4.0574 -2.33604,7.7482 -5.992188,9.4922 a 0.50004997,0.50004997 0 0 0 -0.283203,0.45311 l 0,3.3731 -3.726562,0 -0.0039,-3.42381 a 0.50004997,0.50004997 0 1 0 -1,0 l 0.0039,3.92181 a 0.50004997,0.50004997 0 0 0 0.5,0.5 l 5.080078,0 c 0.147121,10e-5 0.251953,0.1058 0.251953,0.2559 0,0.1503 -0.103986,0.252 -0.251953,0.252 a 0.50004997,0.50004997 0 0 0 -0.03516,0.998 0.50004997,0.50004997 0 0 0 0.07227,0.01 l 0.820313,0 c 0.146765,0 0.251953,0.1027 0.251953,0.2539 0,0.1513 -0.103779,0.2539 -0.251953,0.2539 l -6.294922,0 a 0.50004997,0.50004997 0 0 0 -0.117188,0.012 0.50004997,0.50004997 0 0 0 0.07031,0.9961 l 5.484375,0 c 0.147121,1e-4 0.251953,0.1038 0.251953,0.2539 0,0.1501 -0.105186,0.2559 -0.251953,0.2559 l -2.203125,0 a 0.50004997,0.50004997 0 0 0 -0.02344,0.998 0.50004997,0.50004997 0 0 0 0.02344,0 0.50004997,0.50004997 0 0 0 0.06055,0 l 1.095703,0 c 0.147806,0 0.251953,0.104 0.251953,0.2539 0,0.1503 -0.105188,0.2559 -0.251953,0.2559 l -1.554688,0 a 0.50004997,0.50004997 0 0 0 -0.193359,0 l -1.742187,0 a 0.50004997,0.50004997 0 1 0 0,1 l 1.238281,0 -0.117188,0.6464 -3.339843,0 -0.121094,-0.6679 a 0.50004997,0.50004997 0 0 0 -0.148438,-0.9785 l -0.347656,0 a 0.50004997,0.50004997 0 0 0 -0.197266,0 l -1.55664,0 c -0.146765,0 -0.251953,-0.1056 -0.251953,-0.2559 0,-0.1499 0.104147,-0.2539 0.251953,-0.2539 l 2.044922,0 a 0.50004997,0.50004997 0 0 0 0.06641,0 l 1.455078,0 a 0.50004997,0.50004997 0 1 0 0,-1 l -4.613281,0 c -0.146767,0 -0.251953,-0.1058 -0.251953,-0.2559 0,-0.1501 0.105266,-0.2539 0.251953,-0.2539 a 0.50004997,0.50004997 0 0 0 0.08789,-0.01 l 1.197266,0 a 0.50004997,0.50004997 0 1 0 0,-1 l -2.142578,0 c -0.147887,0 -0.25,-0.1026 -0.25,-0.2539 0,-0.1512 0.103233,-0.2539 0.25,-0.2539 l 0.839844,0 c 0.006,0 0.01156,0 0.01758,0 l 6.142578,0 a 0.50004997,0.50004997 0 1 0 0,-1 l -0.09375,0 a 0.50004997,0.50004997 0 0 0 -0.05078,0 l -6.003907,0 c -0.144239,0 -0.246093,-0.1021 -0.246093,-0.25 0,-0.1501 0.105268,-0.2559 0.251953,-0.2559 l 0.347656,0 a 0.50004997,0.50004997 0 0 0 0.5,-0.4981 l 0.0078,-3.8789 a 0.50004997,0.50004997 0 0 0 -0.285157,-0.45311 c -3.655252,-1.7437 -5.984409,-5.4338 -5.990234,-9.4902 0.0011,-5.8194 4.699923,-10.52542 10.507812,-10.52542 z m -14.498047,2.34572 a 0.50004997,0.50004997 0 0 0 -0.492187,0.5078 l 0,1.7441 a 0.50004997,0.50004997 0 1 0 1,0 l 0,-1.7441 a 0.50004997,0.50004997 0 0 0 -0.507813,-0.5078 z m 13.628907,0.4414 0,1.1602 c -0.688009,0.1019 -1.356234,0.2952 -1.896485,0.6992 -0.667161,0.499 -1.125,1.3017 -1.125,2.2988 0,0.7968 0.226949,1.5066 0.763672,2.1094 0.490228,0.5506 1.235703,1.043 2.257813,1.6347 l 0,3.918 c -0.394022,-0.076 -0.747208,-0.2062 -1.025391,-0.4531 -0.395879,-0.3513 -0.700307,-0.8927 -0.861328,-1.6621 l -0.08594,-0.4102 -1.183593,0 0,3.0039 0.226562,0.1524 c 0.856824,0.5784 1.732773,0.8264 2.929688,0.8945 l 0,1.543 1.601562,0 0,-1.5821 c 0.826741,-0.1483 1.58666,-0.364 2.175781,-0.8144 0.697182,-0.5331 1.115235,-1.3899 1.115235,-2.4942 0,-0.6948 -0.114289,-1.326 -0.441406,-1.8183 -0.242346,-0.3691 -0.517632,-0.7156 -0.978516,-1.0801 -0.403386,-0.319 -1.049316,-0.6966 -1.871094,-1.1504 l 0,-3.1484 c 0.258534,0.098 0.575381,0.1496 0.75586,0.3203 0.318298,0.3012 0.557423,0.7395 0.710937,1.3789 l 0.09375,0.3945 1.171875,0 0,-2.6172 -0.150391,-0.1523 c -0.564785,-0.5668 -1.440485,-0.8391 -2.582031,-0.9688 l 0,-1.1562 -1.601562,0 z m 0,2.8438 0,2.0527 c -0.146241,-0.1247 -0.432102,-0.3166 -0.509766,-0.4102 -0.199508,-0.2406 -0.228516,-0.3558 -0.228515,-0.6523 0,-0.3231 0.08917,-0.5651 0.289062,-0.7774 0.08458,-0.09 0.31215,-0.1359 0.449219,-0.2128 z m -26.908203,0.3671 a 0.50004997,0.50004997 0 0 0 -0.347657,0.8575 l 1.8125,1.8125 a 0.50004997,0.50004997 0 1 0 0.707032,-0.7071 l -1.8125,-1.8125 a 0.50004997,0.50004997 0 0 0 -0.359375,-0.1504 z m 6.050781,0 a 0.50004997,0.50004997 0 0 0 -0.34375,0.1504 l -1.8125,1.8125 a 0.50004997,0.50004997 0 1 0 0.707031,0.7071 l 1.8125,-1.8125 a 0.50004997,0.50004997 0 0 0 -0.363281,-0.8575 z m -17.833984,0.6465 c -1.082615,0 -1.972656,0.8881 -1.972657,1.9707 0,1.0826 0.890042,1.9707 1.972657,1.9707 1.082615,0 1.970703,-0.8881 1.970703,-1.9707 0,-1.0826 -0.888088,-1.9707 -1.970703,-1.9707 z m 0,1 c 0.542174,0 0.970703,0.4285 0.970703,0.9707 0,0.5422 -0.428529,0.9707 -0.970703,0.9707 -0.542175,0 -0.972657,-0.4285 -0.972657,-0.9707 0,-0.5422 0.430482,-0.9707 0.972657,-0.9707 z m 13.591796,2.5957 a 0.50004997,0.50004997 0 0 0 -0.34375,0.1504 l -1.8125,1.8125 a 0.50004997,0.50004997 0 1 0 0.707032,0.707 l 1.8125,-1.8125 a 0.50004997,0.50004997 0 0 0 -0.363282,-0.8574 z m 2.435547,0 a 0.50004997,0.50004997 0 0 0 -0.349609,0.8574 l 1.8125,1.8125 a 0.50004997,0.50004997 0 1 0 0.707031,-0.707 l -1.8125,-1.8125 a 0.50004997,0.50004997 0 0 0 -0.357422,-0.1504 z m 38.314453,0.3008 a 0.50005,0.50005 0 0 0 -0.492187,0.5059 l 0,5.0644 a 0.50005,0.50005 0 1 0 1,0 l 0,-5.0644 a 0.50005,0.50005 0 0 0 -0.507813,-0.5059 z m -14.048828,1.1836 c 0.19251,0.1538 0.528932,0.3514 0.626953,0.4785 0.219256,0.2842 0.28125,0.5181 0.28125,0.9727 0,0.5246 -0.101918,0.7903 -0.304687,0.998 -0.100083,0.1025 -0.407396,0.1724 -0.603516,0.2598 l 0,-2.709 z m 14.048828,5.375 a 0.50004997,0.50004997 0 0 0 -0.492187,0.5078 l 0,1.7461 a 0.50004997,0.50004997 0 1 0 1,0 l 0,-1.7461 a 0.50004997,0.50004997 0 0 0 -0.507813,-0.5078 z m -48.765625,0.1816 c 0.316394,0 0.648438,0.3352 0.648438,0.8692 l 0,4.59371 -1.296875,0 0,-4.59371 c 0,-0.534 0.332041,-0.8692 0.648437,-0.8692 z m 8,0 c 0.316394,0 0.648438,0.3352 0.648438,0.8692 l 0,4.59371 -1.296875,0 0,-4.59371 c 0,-0.534 0.332041,-0.8692 0.648437,-0.8692 z m 11.523438,3.0782 c -1.082615,0 -1.970703,0.88811 -1.970703,1.97071 0,1.0827 0.888088,1.9707 1.970703,1.9707 1.082615,0 1.970703,-0.888 1.970703,-1.9707 0,-1.0826 -0.888088,-1.97071 -1.970703,-1.97071 z m 0,1.00001 c 0.542175,0 0.970703,0.4286 0.970703,0.9707 0,0.5422 -0.428528,0.9707 -0.970703,0.9707 -0.542175,0 -0.970703,-0.4285 -0.970703,-0.9707 0,-0.5421 0.428528,-0.9707 0.970703,-0.9707 z m -21.994141,2.3847 12.941407,0 c 0.371421,0 0.656248,0.2849 0.65625,0.6563 l 0,0.8594 c 0,0.1364 -0.04342,0.2793 -0.101563,0.3867 -0.05814,0.1075 -0.170067,0.1768 -0.08594,0.1328 a 0.50005,0.50005 0 0 0 -0.267579,0.4238 l -0.171875,4.3281 c -0.06421,1.6161 -1.268221,2.8809 -2.861328,2.8809 l -7.277344,0 c -1.593106,0 -2.797118,-1.2648 -2.861327,-2.8809 l -0.171875,-4.3281 a 0.50005,0.50005 0 0 0 -0.267579,-0.4238 c 0.08503,0.044 -0.02584,-0.025 -0.08398,-0.1328 -0.05814,-0.1074 -0.103515,-0.2503 -0.103515,-0.3867 l 0,-0.8594 c 0,-0.3714 0.284828,-0.6563 0.65625,-0.6563 z m 1.791016,1.8907 a 0.50064426,0.50064426 0 1 0 0.05078,1 l 9.257813,0 a 0.50005,0.50005 0 1 0 0,-1 l -9.257813,0 a 0.50005,0.50005 0 0 0 -0.05078,0 z m 0.767578,2.5312 a 0.50005,0.50005 0 1 0 0,1 l 7.824219,0 a 0.50005,0.50005 0 1 0 0,-1 l -7.824219,0 z m 43.640625,2.5254 a 0.50005,0.50005 0 0 0 -0.492188,0.5059 l 0,5.0644 a 0.50005,0.50005 0 1 0 1,0 l 0,-5.0644 a 0.50005,0.50005 0 0 0 -0.507812,-0.5059 z m 2,0 a 0.50004997,0.50004997 0 0 0 -0.492188,0.5059 l 0,1.7461 a 0.50004997,0.50004997 0 1 0 1,0 l 0,-1.7461 a 0.50004997,0.50004997 0 0 0 -0.507812,-0.5059 z m -44.882812,0 a 0.50005,0.50005 0 1 0 0,1 l 6.310546,0 a 0.50005,0.50005 0 1 0 0,-1 l -6.310546,0 z m 16.519531,2.5664 a 0.50005,0.50005 0 0 0 -0.492188,0.5078 l 0,5.0625 a 0.50005,0.50005 0 1 0 1,0 l 0,-5.0625 a 0.50005,0.50005 0 0 0 -0.507812,-0.5078 z m 2,0 a 0.50004997,0.50004997 0 0 0 -0.492188,0.5078 l 0,1.7461 a 0.50004997,0.50004997 0 1 0 1,0 l 0,-1.7461 a 0.50004997,0.50004997 0 0 0 -0.507812,-0.5078 z m 26.363281,0.6719 a 0.50005,0.50005 0 0 0 -0.492188,0.5078 l 0,5.0625 a 0.50005,0.50005 0 1 0 1,0 l 0,-5.0625 a 0.50005,0.50005 0 0 0 -0.507812,-0.5078 z m -26.363281,2.5723 a 0.50005,0.50005 0 0 0 -0.492188,0.5058 l 0,5.0625 a 0.50005,0.50005 0 1 0 1,0 l 0,-5.0625 a 0.50005,0.50005 0 0 0 -0.507812,-0.5058 z m -26.556641,0.5937 a 0.50004997,0.50004997 0 0 0 -0.347656,0.8574 l 1.8125,1.8125 a 0.50004997,0.50004997 0 1 0 0.707031,-0.707 l -1.8125,-1.8125 a 0.50004997,0.50004997 0 0 0 -0.359375,-0.1504 z m 6.050781,0 a 0.50004997,0.50004997 0 0 0 -0.343749,0.1504 l -1.8125,1.8125 a 0.50004997,0.50004997 0 1 0 0.707031,0.707 l 1.8125,-1.8105 a 0.50004997,0.50004997 0 0 0 -0.363282,-0.8594 z m 44.869141,0.1504 a 0.50004997,0.50004997 0 0 0 -0.492188,0.5078 l 0,1.7461 a 0.50004997,0.50004997 0 1 0 1,0 l 0,-1.7461 a 0.50004997,0.50004997 0 0 0 -0.507812,-0.5078 z m -26.363281,2.5723 a 0.50004997,0.50004997 0 0 0 -0.492188,0.5078 l 0,1.7441 a 0.50004997,0.50004997 0 1 0 1,0 l 0,-1.7441 a 0.50004997,0.50004997 0 0 0 -0.507812,-0.5078 z m -22.748047,1.5195 a 0.50004997,0.50004997 0 0 0 -0.34375,0.1523 l -1.8125,1.8106 a 0.50064312,0.50064312 0 0 0 0.707031,0.709 l 1.8125,-1.8125 a 0.50004997,0.50004997 0 0 0 -0.363281,-0.8594 z m 2.435547,0 a 0.50004997,0.50004997 0 0 0 -0.349609,0.8594 l 1.8125,1.8125 a 0.50004997,0.50004997 0 1 0 0.707031,-0.7071 l -1.8125,-1.8125 A 0.50004997,0.50004997 0 0 0 24.26065,1020.91 Z m 44.52539,2.7598 a 0.50004997,0.50004997 0 0 0 -0.349609,0.8593 l 1.8125,1.8125 a 0.50004997,0.50004997 0 1 0 0.707031,-0.707 l -1.8125,-1.8125 a 0.50004997,0.50004997 0 0 0 -0.357422,-0.1523 z m 6.048829,0 a 0.50004997,0.50004997 0 0 0 -0.34375,0.1523 l -1.8125,1.8125 a 0.50004997,0.50004997 0 1 0 0.707031,0.707 l 1.8125,-1.8125 a 0.50004997,0.50004997 0 0 0 -0.363281,-0.8593 z m -45.025391,1.6835 2.765625,0 c 0.240621,0 0.417969,0.1794 0.417969,0.42 l 0,2.7656 c 0,0.2406 -0.177348,0.418 -0.417969,0.418 l -2.765625,0 c -0.240622,0 -0.417969,-0.1774 -0.417969,-0.418 l 0,-2.7656 c 0,-0.2406 0.177347,-0.42 0.417969,-0.42 z m 30.001953,0 2.767578,0 c 0.240622,0 0.417969,0.1794 0.417969,0.42 l 0,2.7656 c 0,0.2406 -0.177347,0.418 -0.417969,0.418 l -2.767578,0 c -0.240622,0 -0.417969,-0.1774 -0.417969,-0.418 l 0,-2.7656 c 0,-0.2406 0.177347,-0.42 0.417969,-0.42 z m 13.216797,2.5586 a 0.50004997,0.50004997 0 0 0 -0.347656,0.8594 l 1.810547,1.8125 a 0.50004997,0.50004997 0 1 0 0.707031,-0.707 l -1.810547,-1.8125 a 0.50004997,0.50004997 0 0 0 -0.359375,-0.1524 z m -2.435547,0 a 0.50004997,0.50004997 0 0 0 -0.34375,0.1504 l -1.8125,1.8125 a 0.50004997,0.50004997 0 1 0 0.707031,0.707 l 1.8125,-1.8125 a 0.50004997,0.50004997 0 0 0 -0.363281,-0.8574 z m -47.503906,1.4316 c -1.082615,0 -1.970703,0.89 -1.970703,1.9727 0,1.0826 0.888088,1.9707 1.970703,1.9707 1.082615,0 1.970703,-0.8881 1.970703,-1.9707 0,-1.0827 -0.888088,-1.9727 -1.970703,-1.9727 z m 0,1 c 0.542175,0 0.970703,0.4305 0.970703,0.9727 0,0.5421 -0.428528,0.9707 -0.970703,0.9707 -0.542175,0 -0.970703,-0.4286 -0.970703,-0.9707 0,-0.5422 0.428528,-0.9727 0.970703,-0.9727 z m 16.197265,0.023 a 0.50064429,0.50064429 0 1 0 0.05078,1 l 3.169921,0 a 0.50004997,0.50004997 0 1 0 0,-1 l -3.169921,0 a 0.50004997,0.50004997 0 0 0 -0.05078,0 z m 4.798829,0 a 0.50064426,0.50064426 0 1 0 0.05078,1 l 9.046875,0 a 0.50004997,0.50004997 0 1 0 0,-1 l -9.046875,0 a 0.50004997,0.50004997 0 0 0 -0.05078,0 z m -0.839844,2 a 0.50064426,0.50064426 0 1 0 0.05078,1 l 6.158203,0 a 0.50004997,0.50004997 0 1 0 0,-1 l -6.158203,0 a 0.50004997,0.50004997 0 0 0 -0.05078,0 z m 7.757812,0 a 0.50064429,0.50064429 0 1 0 0.05078,1 l 2.5625,0 a 0.50004997,0.50004997 0 1 0 0,-1 l -2.5625,0 a 0.50004997,0.50004997 0 0 0 -0.05078,0 z" color="#000" enable-background="accumulate" font-family="sans-serif" font-weight="400" overflow="visible"/></g></svg>