<svg xmlns="http://www.w3.org/2000/svg"  viewBox="0 0 520 520" width="128px" height="128px"><rect width="350" height="215" x="77.5" y="212.5" fill="#a85120"/><circle cx="452.5" cy="77.5" r="30" fill="#07cc66"/><path fill="#07cc66" d="M72.5,52.5c11.05,0,20,8.95,20,20s-8.95,20-20,20s-20-8.95-20-20S61.45,52.5,72.5,52.5z"/><path fill="#faa71a" d="M190.98,318.73c20.52,0,37.25,16.76,37.25,37.25c0,20.52-16.73,37.25-37.25,37.25 c-20.49,0-37.25-16.73-37.25-37.25C153.73,335.49,170.49,318.73,190.98,318.73z M210.99,355.98c0-11-8.98-19.98-20.01-19.98 c-11,0-19.98,8.98-19.98,19.98c0,11.029,8.98,20.01,19.98,20.01C202.01,375.99,210.99,367.01,210.99,355.98z"/><path fill="#ffd400" d="M262.5,343.2v25.59l-16.27,1.28c-1.36,5.359-3.46,10.399-6.21,15.02l10.57,12.42l-18.08,18.08 l-12.42-10.57c-4.62,2.75-9.66,4.851-15.02,6.211l-1.28,16.27H178.2l-1.31-16.27c-5.33-1.36-10.37-3.461-14.99-6.211l-12.42,10.57 l-18.08-18.08l10.57-12.42c-2.75-4.62-4.87-9.66-6.24-15.02l-16.24-1.28V343.2l16.24-1.311c1.37-5.33,3.49-10.37,6.24-14.989 l-10.57-12.42l18.08-18.08l12.42,10.569c4.62-2.75,9.66-4.87,14.99-6.239l1.31-16.24h25.59l1.28,16.24 c5.36,1.369,10.4,3.489,15.02,6.239l12.42-10.569l18.08,18.08l-10.57,12.42c2.75,4.619,4.85,9.659,6.21,14.989L262.5,343.2z M228.23,355.98c0-20.49-16.73-37.25-37.25-37.25c-20.49,0-37.25,16.76-37.25,37.25c0,20.52,16.76,37.25,37.25,37.25 C211.5,393.23,228.23,376.5,228.23,355.98z"/><rect width="70" height="60" x="217.5" y="212.5" fill="#eaaf7a"/><polygon fill="#c86d36" points="377.5,112.5 273.5,112.5 231.5,112.5 127.5,112.5 77.5,212.5 217.5,212.5 287.5,212.5 427.5,212.5"/><polygon fill="#ffd5ab" points="273.5,112.5 287.5,212.5 217.5,212.5 231.5,112.5"/><polygon fill="#c86d36" points="427.5,427.5 427.5,472.5 77.5,472.5 77.5,427.5 149.48,427.5 178.2,427.5 203.79,427.5 232.51,427.5"/><circle cx="450" cy="165" r="7.5"/><circle cx="380" cy="55" r="7.5"/><circle cx="270" cy="50" r="7.5"/><circle cx="130" cy="60" r="7.5"/><circle cx="50" cy="225" r="7.5"/><circle cx="40" cy="425" r="7.5"/><path d="M427.5,477.5h-350c-2.761,0-5-2.238-5-5v-260c0-2.761,2.239-5,5-5s5,2.239,5,5v255h340v-255c0-2.761,2.238-5,5-5 s5,2.239,5,5v260C432.5,475.262,430.262,477.5,427.5,477.5z"/><path d="M427.5,217.5h-140c-2.762,0-5-2.239-5-5s2.238-5,5-5h131.91l-45-90H273.5c-2.762,0-5-2.239-5-5s2.238-5,5-5h104 c1.894,0,3.625,1.07,4.472,2.764l50,100c0.775,1.55,0.692,3.391-0.219,4.864C430.842,216.603,429.232,217.5,427.5,217.5z"/><path d="M217.5,217.5h-140c-1.733,0-3.342-0.897-4.253-2.372c-0.911-1.474-0.994-3.314-0.219-4.864l50-100 c0.847-1.694,2.578-2.764,4.472-2.764h104c2.761,0,5,2.239,5,5s-2.239,5-5,5H130.59l-45,90H217.5c2.761,0,5,2.239,5,5 S220.261,217.5,217.5,217.5z"/><path d="M287.5,277.5h-70c-2.761,0-5-2.238-5-5v-60c0-2.761,2.239-5,5-5s5,2.239,5,5v55h60v-55c0-2.761,2.238-5,5-5s5,2.239,5,5 v60C292.5,275.262,290.262,277.5,287.5,277.5z"/><path d="M287.52,217.5c-0.005,0-0.012,0-0.02,0h-70c-1.447,0-2.823-0.627-3.772-1.719c-0.95-1.092-1.38-2.542-1.179-3.975l14-100 c0.346-2.469,2.458-4.307,4.952-4.307h42c2.493,0,4.606,1.837,4.952,4.307l13.937,99.55c0.086,0.367,0.131,0.75,0.131,1.143 C292.52,215.261,290.281,217.5,287.52,217.5z M223.249,207.5h58.502l-12.6-90h-33.303L223.249,207.5z"/><path d="M427.5,432.5H203.79c-2.761,0-5-2.238-5-5s2.239-5,5-5H427.5c2.762,0,5,2.238,5,5S430.262,432.5,427.5,432.5z"/><path d="M178.2,432.5H77.5c-2.761,0-5-2.238-5-5s2.239-5,5-5h100.7c2.761,0,5,2.238,5,5S180.961,432.5,178.2,432.5z"/><path d="M203.79,432.5H178.2c-2.606,0-4.775-2.001-4.984-4.599l-1.032-12.819c-3.343-1.063-6.581-2.403-9.682-4.01l-9.782,8.325 c-1.985,1.688-4.934,1.57-6.776-0.272l-18.08-18.08c-1.843-1.843-1.961-4.791-0.272-6.775l8.324-9.78 c-1.618-3.118-2.967-6.364-4.033-9.707l-12.786-1.008c-2.601-0.205-4.607-2.375-4.607-4.984V343.2 c0-2.605,2.001-4.774,4.598-4.983l12.797-1.033c1.067-3.334,2.415-6.571,4.03-9.683l-8.323-9.78 c-1.689-1.984-1.571-4.933,0.272-6.775l18.08-18.08c1.842-1.844,4.791-1.962,6.776-0.272l9.78,8.322 c3.112-1.615,6.351-2.963,9.684-4.029l1.032-12.798c0.209-2.597,2.378-4.598,4.984-4.598h25.59c2.609,0,4.78,2.006,4.984,4.607 l1.008,12.785c3.342,1.065,6.588,2.414,9.707,4.033l9.78-8.323c1.984-1.69,4.933-1.57,6.776,0.272l18.08,18.08 c1.842,1.842,1.961,4.791,0.272,6.775l-8.324,9.782c1.605,3.1,2.946,6.337,4.009,9.681l12.819,1.033 c2.598,0.209,4.599,2.378,4.599,4.983v25.59c0,2.609-2.007,4.78-4.607,4.984l-12.809,1.008c-1.061,3.353-2.403,6.598-4.011,9.705 l8.325,9.782c1.689,1.984,1.57,4.934-0.272,6.775l-18.08,18.08c-1.843,1.845-4.792,1.962-6.776,0.272l-9.782-8.325 c-3.107,1.608-6.354,2.95-9.705,4.013l-1.008,12.807C208.57,430.493,206.399,432.5,203.79,432.5z M182.814,422.5h16.354 l0.917-11.661c0.168-2.137,1.678-3.928,3.754-4.455c4.838-1.228,9.445-3.132,13.692-5.66c1.838-1.097,4.169-0.898,5.798,0.488 l8.906,7.58l11.555-11.556l-7.58-8.906c-1.387-1.629-1.583-3.959-0.489-5.798c2.528-4.247,4.433-8.854,5.66-13.691 c0.527-2.077,2.318-3.587,4.454-3.755l11.662-0.918v-16.354l-11.671-0.94c-2.13-0.171-3.915-1.677-4.443-3.747 c-1.232-4.828-3.137-9.427-5.662-13.668c-1.094-1.838-0.898-4.169,0.489-5.798l7.58-8.906l-11.555-11.556l-8.907,7.579 c-1.629,1.388-3.96,1.583-5.798,0.489c-4.279-2.548-8.889-4.463-13.7-5.691c-2.073-0.529-3.579-2.319-3.747-4.452l-0.917-11.633 h-16.355l-0.939,11.643c-0.171,2.126-1.673,3.909-3.74,4.44c-4.801,1.233-9.402,3.148-13.677,5.693 c-1.838,1.094-4.168,0.898-5.798-0.489l-8.907-7.579l-11.555,11.556l7.58,8.906c1.387,1.629,1.583,3.96,0.489,5.798 c-2.544,4.273-4.459,8.874-5.694,13.677c-0.531,2.065-2.314,3.567-4.44,3.738l-11.642,0.939v16.356l11.633,0.917 c2.132,0.168,3.921,1.674,4.451,3.746c1.23,4.812,3.146,9.421,5.692,13.7c1.094,1.839,0.898,4.169-0.489,5.798l-7.58,8.906 l11.555,11.556l8.906-7.58c1.63-1.387,3.959-1.583,5.798-0.489c4.243,2.525,8.842,4.431,13.669,5.663 c2.07,0.528,3.576,2.313,3.748,4.443L182.814,422.5z"/><path d="M190.98,398.23c-23.297,0-42.25-18.953-42.25-42.25s18.953-42.25,42.25-42.25s42.25,18.953,42.25,42.25 S214.277,398.23,190.98,398.23z M190.98,323.73c-17.783,0-32.25,14.467-32.25,32.25s14.467,32.25,32.25,32.25 s32.25-14.467,32.25-32.25S208.763,323.73,190.98,323.73z"/><path d="M391.8,377.5h-25.59c-2.605,0-4.774-2.001-4.984-4.599l-1.031-12.819c-3.344-1.063-6.581-2.403-9.682-4.01l-9.782,8.325 c-1.983,1.689-4.935,1.57-6.775-0.272l-18.08-18.08c-1.843-1.843-1.962-4.791-0.272-6.775l8.323-9.78 c-1.626-3.129-2.977-6.375-4.037-9.707l-12.781-1.008c-2.602-0.205-4.607-2.375-4.607-4.984V288.2 c0-2.605,2.001-4.774,4.598-4.983l12.794-1.033c1.062-3.322,2.41-6.562,4.033-9.684l-8.322-9.779 c-1.689-1.984-1.57-4.934,0.272-6.776l18.08-18.08c1.841-1.843,4.79-1.961,6.775-0.272l9.78,8.324 c3.111-1.616,6.351-2.964,9.684-4.031l1.032-12.797c0.209-2.597,2.378-4.598,4.983-4.598h25.59c2.609,0,4.779,2.006,4.984,4.607 l1.008,12.786c4.488,1.431,8.803,3.372,12.865,5.791c2.373,1.413,3.151,4.481,1.738,6.854c-1.412,2.372-4.48,3.152-6.854,1.739 c-4.278-2.547-8.888-4.462-13.7-5.692c-2.072-0.53-3.578-2.319-3.746-4.451l-0.917-11.633h-16.355l-0.939,11.642 c-0.171,2.126-1.673,3.91-3.738,4.441c-4.802,1.234-9.404,3.15-13.678,5.694c-1.84,1.094-4.169,0.899-5.798-0.489l-8.906-7.58 l-11.556,11.555l7.58,8.907c1.387,1.629,1.583,3.96,0.488,5.798c-2.561,4.302-4.476,8.899-5.691,13.667 c-0.527,2.07-2.313,3.576-4.442,3.748l-11.643,0.939v16.356l11.633,0.917c2.136,0.168,3.927,1.679,4.454,3.755 c1.212,4.777,3.126,9.384,5.69,13.691c1.094,1.839,0.897,4.169-0.489,5.798l-7.58,8.906l11.556,11.556l8.906-7.58 c1.629-1.388,3.958-1.584,5.798-0.489c4.242,2.525,8.842,4.431,13.669,5.663c2.07,0.528,3.576,2.313,3.747,4.443l0.939,11.671 h16.354l0.918-11.662c0.168-2.136,1.678-3.927,3.755-4.454c4.838-1.228,9.444-3.132,13.691-5.66 c2.373-1.413,5.441-0.635,6.854,1.738c1.413,2.373,0.635,5.441-1.738,6.854c-4.044,2.408-8.358,4.342-12.865,5.77l-1.008,12.808 C396.58,375.493,394.409,377.5,391.8,377.5z"/><path d="M378.99,343.23c-23.297,0-42.25-18.953-42.25-42.25s18.953-42.25,42.25-42.25c2.762,0,5,2.238,5,5s-2.238,5-5,5 c-17.783,0-32.25,14.467-32.25,32.25s14.467,32.25,32.25,32.25c2.762,0,5,2.238,5,5S381.752,343.23,378.99,343.23z"/><path d="M190.98,380.99c-13.774,0-24.98-11.22-24.98-25.01c0-13.774,11.206-24.98,24.98-24.98c13.791,0,25.01,11.206,25.01,24.98 C215.99,369.771,204.771,380.99,190.98,380.99z M190.98,341c-8.26,0-14.98,6.72-14.98,14.98c0,8.276,6.72,15.01,14.98,15.01 c8.277,0,15.01-6.733,15.01-15.01C205.99,347.72,199.257,341,190.98,341z"/><path d="M72.5,97.5c-13.785,0-25-11.215-25-25s11.215-25,25-25s25,11.215,25,25S86.285,97.5,72.5,97.5z M72.5,57.5 c-8.271,0-15,6.729-15,15s6.729,15,15,15s15-6.729,15-15S80.771,57.5,72.5,57.5z"/><path d="M452.5,112.5c-19.299,0-35-15.701-35-35s15.701-35,35-35s35,15.701,35,35S471.799,112.5,452.5,112.5z M452.5,52.5 c-13.785,0-25,11.215-25,25s11.215,25,25,25s25-11.215,25-25S466.285,52.5,452.5,52.5z"/></svg>