<svg xmlns="http://www.w3.org/2000/svg"  viewBox="0 0 64 64" width="256px" height="256px"><path fill="#ffd422" d="M51,26a18.947,18.947,0,0,1-8.27,15.66A6.138,6.138,0,0,0,40,46.69V49H24V46.69a6.127,6.127,0,0,0-2.74-5.04A18.994,18.994,0,1,1,51,26Z"/><path fill="#ff9811" d="M40,49a2.006,2.006,0,0,1,2,2,2.015,2.015,0,0,1-2,2H24a2.006,2.006,0,0,1-2-2,2.015,2.015,0,0,1,2-2Z"/><path fill="#ee8700" d="M39,53a2.006,2.006,0,0,1,2,2,2.015,2.015,0,0,1-2,2H25a2.006,2.006,0,0,1-2-2,2.015,2.015,0,0,1,2-2Z"/><path fill="#cc7400" d="M25,57H39a4,4,0,0,1-4,4H29A4,4,0,0,1,25,57Z"/><circle cx="32" cy="26" r="9" fill="#ff6243"/><path d="M43.3,42.481a20,20,0,1,0-22.6,0A5.153,5.153,0,0,1,23,46.688v1.5a2.983,2.983,0,0,0-.6,5.345,2.958,2.958,0,0,0,1.684,4.313A5,5,0,0,0,29,62h6a5,5,0,0,0,4.915-4.158A2.958,2.958,0,0,0,41.6,53.529a2.983,2.983,0,0,0-.6-5.345v-1.5A5.145,5.145,0,0,1,43.3,42.481ZM21.826,40.827a18,18,0,1,1,20.341.005A7.142,7.142,0,0,0,39,46.688V48H25V46.688A7.155,7.155,0,0,0,21.826,40.827ZM24,50H40a1,1,0,0,1,0,2H24a1,1,0,0,1,0-2ZM35,60H29a3,3,0,0,1-2.816-2H37.816A3,3,0,0,1,35,60Zm4-4H25a1,1,0,0,1,0-2H39a1,1,0,0,1,0,2Z"/><rect width="2" height="2" x="31" y="12"/><rect width="2" height="2" x="21.808" y="15.808" transform="rotate(-45 22.807 16.808)"/><rect width="2" height="2" x="18" y="25"/><rect width="2" height="2" x="21.808" y="34.192" transform="rotate(-45 22.807 35.193)"/><rect width="2" height="2" x="31" y="38"/><rect width="2" height="2" x="40.192" y="34.192" transform="rotate(-45 41.192 35.193)"/><rect width="2" height="2" x="44" y="25"/><rect width="2" height="2" x="40.192" y="15.808" transform="rotate(-45 41.192 16.808)"/><path d="M33,29H31a1,1,0,0,1-1-1H28a3,3,0,0,0,3,3v1h2V31a3,3,0,0,0,0-6H31a1,1,0,0,1,0-2h2a1,1,0,0,1,1,1h2a3,3,0,0,0-3-3V20H31v1a3,3,0,0,0,0,6h2a1,1,0,0,1,0,2Z"/><path d="M32,36A10,10,0,1,0,22,26,10.011,10.011,0,0,0,32,36Zm0-18a8,8,0,1,1-8,8A8.009,8.009,0,0,1,32,18Z"/><path d="M58.293,16.293,55.586,19H54v2h2a1,1,0,0,0,.707-.293L59.414,18H62V16H59A1,1,0,0,0,58.293,16.293Z"/><path d="M56.707,31.293A1,1,0,0,0,56,31H54v2h1.586l2.707,2.707A1,1,0,0,0,59,36h3V34H59.414Z"/><rect width="8" height="2" x="54" y="25"/><path d="M60,7a1,1,0,0,0-.707.293L53.586,13H50v2h4a1,1,0,0,0,.707-.293L60.414,9H62V7Z"/><path d="M54.707,37.293A1,1,0,0,0,54,37H50v2h3.586l5.707,5.707A1,1,0,0,0,60,45h2V43H60.414Z"/><path d="M50.707,8.707l4-4A1,1,0,0,0,55,4V2H53V3.586L49.586,7H46V9h4A1,1,0,0,0,50.707,8.707Z"/><path d="M50.707,43.293A1,1,0,0,0,50,43H46v2h3.586L53,48.414V50h2V48a1,1,0,0,0-.293-.707Z"/><rect width="2" height="2" x="34" y="2"/><path d="M43.707,4.707A1,1,0,0,0,44,4V2H42V3.586L40.293,5.293l1.414,1.414Z"/><path d="M7.293,20.707A1,1,0,0,0,8,21h2V19H8.414L5.707,16.293A1,1,0,0,0,5,16H2v2H4.586Z"/><path d="M5.707,35.707,8.414,33H10V31H8a1,1,0,0,0-.707.293L4.586,34H2v2H5A1,1,0,0,0,5.707,35.707Z"/><rect width="8" height="2" x="2" y="25"/><path d="M9.293,14.707A1,1,0,0,0,10,15h4V13H10.414L4.707,7.293A1,1,0,0,0,4,7H2V9H3.586Z"/><path d="M14,39V37H10a1,1,0,0,0-.707.293L3.586,43H2v2H4a1,1,0,0,0,.707-.293L10.414,39Z"/><path d="M13.293,8.707A1,1,0,0,0,14,9h4V7H14.414L11,3.586V2H9V4a1,1,0,0,0,.293.707Z"/><path d="M13.293,43.293l-4,4A1,1,0,0,0,9,48v2h2V48.414L14.414,45H18V43H14A1,1,0,0,0,13.293,43.293Z"/><rect width="2" height="2" x="28" y="2"/><path d="M22.293,6.707l1.414-1.414L22,3.586V2H20V4a1,1,0,0,0,.293.707Z"/></svg>