<svg xmlns="http://www.w3.org/2000/svg"  viewBox="0 0 520 520" width="128px" height="128px"><path fill="#6499f3" d="M454.33,115c-42.447,0-346.129,0-388.66,0C51.49,115,40,126.49,40,140.67v268.66 C40,423.51,51.49,435,65.67,435c22.044,0,365.289,0,388.66,0c14.18,0,25.67-11.49,25.67-25.67c0-10.061,0-260.09,0-268.66 C480,126.49,468.51,115,454.33,115z"/><path fill="#c4eaff" d="M95,55c8.28,0,15,6.72,15,15s-6.72,15-15,15s-15-6.72-15-15S86.72,55,95,55z"/><path fill="#c4eaff" d="M440,45c11.05,0,20,8.95,20,20s-8.95,20-20,20s-20-8.95-20-20S428.95,45,440,45z"/><path fill="#d7deed" d="M70,145c0,51.429,0,184.363,0,230c21.673,0,367.681,0,380,0c0-67.524,0-161.633,0-230 C444.472,145,94.592,145,70,145z"/><rect width="45" height="110" x="95" y="145" fill="#ffb995"/><path fill="#74829c" d="M344.14,440.86c3.62,3.62,5.86,8.62,5.86,14.14c0,11.05-8.95,20-20,20H190 c-5.52,0-10.52-2.24-14.14-5.86c-3.62-3.62-5.86-8.62-5.86-14.14c0-11.05,8.95-20,20-20h140 C335.52,435,340.52,437.24,344.14,440.86z"/><circle cx="392.5" cy="62.5" r="7.5" fill="#fde09c"/><circle cx="332.5" cy="87.5" r="7.5" fill="#fde09c"/><path fill="#d7deed" d="M267.07,397.93c1.81,1.811,2.93,4.311,2.93,7.07s-1.12,5.26-2.93,7.07 c-1.811,1.81-4.311,2.93-7.07,2.93c-5.52,0-10-4.48-10-10c0-2.76,1.12-5.26,2.93-7.07c1.81-1.81,4.31-2.93,7.07-2.93 S265.26,396.12,267.07,397.93z"/><circle cx="177.5" cy="72.5" r="7.5" fill="#fde09c"/><path fill="#ff7d3c" d="M445,460h-50c-2.762,0-5-2.238-5-5s2.238-5,5-5h50c2.762,0,5,2.238,5,5S447.762,460,445,460z"/><path fill="#ff7d3c" d="M125,460H75c-2.761,0-5-2.238-5-5s2.239-5,5-5h50c2.761,0,5,2.238,5,5S127.761,460,125,460z"/><path fill="#97a8c4" d="M269.74,339.77c-2.762,0-5-2.238-5-5v-5c0-2.668-1.043-5.181-2.936-7.074 c-1.888-1.887-4.396-2.926-7.064-2.926c-5.347,0-10.371-2.079-14.146-5.854c-3.777-3.791-5.854-8.813-5.854-14.146 c0-11.028,8.972-20,20-20h1.12c2.373,0,4.599-0.923,6.268-2.598c1.687-1.688,2.612-3.916,2.612-6.282 c0-4.896-3.983-8.88-8.88-8.88h-82.65c-2.761,0-5-2.238-5-5c0-2.761,2.239-5,5-5h82.65c10.411,0,18.88,8.469,18.88,18.88 c0,5.037-1.966,9.777-5.535,13.346c-3.552,3.566-8.294,5.534-13.345,5.534h-1.12c-5.514,0-10,4.486-10,10 c0,2.669,1.041,5.184,2.932,7.081c1.88,1.88,4.393,2.919,7.068,2.919c5.34,0,10.359,2.079,14.135,5.855 c3.782,3.781,5.865,8.805,5.865,14.145v5C274.74,337.531,272.502,339.77,269.74,339.77z"/><polygon fill="#ffba00" points="310,220 290,220 270,220 270,175 450,175 450,220 430,220 410,220 390,220 370,220 350,220 330,220"/><path fill="#ff8e00" d="M310,195c-2.762,0-5,2.239-5,5v20h5h5v-20C315,197.239,312.762,195,310,195z"/><path fill="#ff8e00" d="M290,200c-2.762,0-5,2.239-5,5v15h5h5v-15C295,202.239,292.762,200,290,200z"/><path fill="#ff8e00" d="M330,200c-2.762,0-5,2.239-5,5v15h5h5v-15C335,202.239,332.762,200,330,200z"/><path fill="#ff8e00" d="M350,195c-2.762,0-5,2.239-5,5v20h5h5v-20C355,197.239,352.762,195,350,195z"/><path fill="#ff8e00" d="M370,200c-2.762,0-5,2.239-5,5v15h5h5v-15C375,202.239,372.762,200,370,200z"/><path fill="#ff8e00" d="M390,195c-2.762,0-5,2.239-5,5v20h5h5v-20C395,197.239,392.762,195,390,195z"/><path fill="#ff8e00" d="M410,200c-2.762,0-5,2.239-5,5v15h5h5v-15C415,202.239,412.762,200,410,200z"/><path fill="#ff8e00" d="M430,195c-2.762,0-5,2.239-5,5v20h5h5v-20C435,197.239,432.762,195,430,195z"/><g><path fill="#a4acb2" d="M195,345c0-2.762-2.239-5-5-5H70c0,3.463,0,6.801,0,10h120C192.761,350,195,347.762,195,345z"/><path fill="#a4acb2" d="M330,340c-2.762,0-5,2.238-5,5s2.238,5,5,5h120c0-3.294,0-6.628,0-10H330z"/></g><polygon fill="#ff7d3c" points="244.22,80.59 279.44,99.44 268.36,120 252.2,150 201,245 169.21,262.01 165.74,226.12 206.76,150 222.93,120 244.18,80.57"/><path fill="#e04c00" d="M210.846,190.001c-0.805,0-1.621-0.195-2.378-0.605c-2.428-1.316-3.329-4.351-2.013-6.778 l51.32-94.67c1.316-2.428,4.352-3.33,6.778-2.013c2.428,1.316,3.329,4.351,2.013,6.778l-51.32,94.67 C214.34,189.053,212.621,190.001,210.846,190.001z"/><path fill="#74829c" d="M291.3,72.42c0,3.18-0.76,6.42-2.37,9.42l-9.489,17.6l-35.22-18.85l-0.04-0.02l9.49-17.61 c5.21-9.74,17.33-13.41,27.07-8.19C287.47,58.37,291.3,65.28,291.3,72.42z"/></svg>