<svg xmlns="http://www.w3.org/2000/svg"  viewBox="0 0 512 512" width="128px" height="128px"><path fill="#d94556" d="M360,80c11.05,0,20,8.95,20,20s-8.95,20-20,20s-20-8.95-20-20S348.95,80,360,80z"/><circle cx="200" cy="80" r="30" fill="#d94556"/><path fill="#faa71a" d="M400,240c16.57,0,30,13.43,30,30c0,16.559-13.439,30-30,30c-12.977,0-101.124,0-110,0 c-16.57,0-30-13.43-30-30c0-16.559,13.439-30,30-30h20H400z"/><path fill="#faa71a" d="M440,360c16.57,0,30,13.43,30,30c0,16.559-13.439,30-30,30c-8.876,0-97.023,0-110,0 c-16.57,0-30-13.43-30-30c0-16.559,13.439-30,30-30C342.977,360,431.124,360,440,360z"/><path fill="#faa71a" d="M210,420c16.57,0,30,13.43,30,30c0,16.559-13.439,30-30,30H100c-16.57,0-30-13.43-30-30 c0-16.559,13.439-30,30-30H210z"/><path fill="#ffd400" d="M420,420c16.57,0,30,13.43,30,30c0,16.559-13.439,30-30,30H310c-16.57,0-30-13.43-30-30 c0-16.559,13.439-30,30-30C318.876,420,407.023,420,420,420z"/><path fill="#ffd400" d="M420,300c16.57,0,30,13.43,30,30c0,16.559-13.439,30-30,30c-12.977,0-101.124,0-110,0 c-16.57,0-30-13.43-30-30c0-16.559,13.439-30,30-30C322.977,300,411.124,300,420,300z"/><path fill="#ffd400" d="M420,180c16.57,0,30,13.43,30,30c0,16.559-13.439,30-30,30c-8.876,0-97.023,0-110,0 c-16.57,0-30-13.43-30-30c0-16.559,13.439-30,30-30H420z"/><path fill="#ffd400" d="M210,360c16.57,0,30,13.43,30,30c0,16.559-13.439,30-30,30H100c-16.57,0-30-13.43-30-30 c0-16.559,13.439-30,30-30H210z"/><path fill="#ffd400" d="M150,190c38.66,0,70,31.34,70,70s-31.34,70-70,70s-70-31.34-70-70S111.34,190,150,190z"/><path d="M460,120c5.52,0,10,4.48,10,10c0,2.76-1.12,5.26-2.93,7.07c-1.811,1.81-4.311,2.93-7.07,2.93s-5.26-1.12-7.07-2.93 c-1.81-1.81-2.93-4.31-2.93-7.07s1.12-5.26,2.93-7.07C454.74,121.12,457.24,120,460,120z"/><path d="M290,60c5.52,0,10,4.48,10,10c0,2.76-1.12,5.26-2.93,7.07C295.26,78.88,292.76,80,290,80s-5.26-1.12-7.07-2.93 C281.12,75.26,280,72.76,280,70s1.12-5.26,2.93-7.07C284.74,61.12,287.24,60,290,60z"/><path d="M230,160c5.52,0,10,4.48,10,10c0,2.76-1.12,5.26-2.93,7.07S232.76,180,230,180s-5.26-1.12-7.07-2.93S220,172.76,220,170 s1.12-5.26,2.93-7.07S227.24,160,230,160z"/><path d="M153.51,282.92c5.71-0.22,8.57-2.18,8.57-5.9c0-1.92-0.78-3.43-2.34-4.5c-1.56-1.079-3.63-2.06-6.23-2.949V282.92z M148.28,248.87v-13.69c-5.2,0.44-7.79,2.6-7.79,6.45c0,1.86,0.65,3.32,1.95,4.4C143.73,247.1,145.68,248.05,148.28,248.87z M148.27,267.9l-5.34-1.561c-3.63-1.109-6.79-2.31-9.46-3.609c-2.67-1.301-4.88-2.801-6.62-4.511c-1.74-1.71-3.04-3.67-3.9-5.9 c-0.85-2.22-1.28-4.82-1.28-7.79c0-3.86,0.67-7.29,2.01-10.29c1.33-3.01,3.13-5.59,5.4-7.74c2.26-2.15,4.93-3.84,8.01-5.06 c3.08-1.23,6.4-2.02,9.96-2.4V207.8h7.68v11.24c4.82,0.45,9.35,1.53,13.58,3.23c4.23,1.71,7.9,3.45,11.02,5.23l-8.01,15.13 c-0.23-0.29-0.88-0.78-1.95-1.44c-1.08-0.67-2.45-1.39-4.12-2.17s-3.53-1.52-5.57-2.23c-2.04-0.7-4.1-1.2-6.17-1.5v15.14l3.56,0.89 c3.78,1.04,7.19,2.17,10.24,3.39c3.04,1.23,5.62,2.75,7.73,4.57c2.12,1.81,3.75,4.02,4.9,6.62c1.15,2.59,1.72,5.71,1.72,9.35 c0,4.23-0.74,7.83-2.22,10.79c-1.49,2.97-3.47,5.4-5.96,7.29c-2.48,1.89-5.34,3.32-8.57,4.29c-3.23,0.96-6.62,1.52-10.18,1.67 v12.91h-7.68v-13.03c-5.12-0.439-10.18-1.479-15.19-3.11c-5.01-1.63-9.52-3.79-13.52-6.46l8.01-15.909 c0.29,0.369,1.09,0.979,2.39,1.84c1.3,0.85,2.95,1.739,4.96,2.67c2,0.92,4.26,1.81,6.78,2.67c2.53,0.85,5.12,1.46,7.79,1.84V267.9z"/><path d="M60,150c5.52,0,10,4.48,10,10c0,2.76-1.12,5.26-2.93,7.07S62.76,170,60,170s-5.26-1.12-7.07-2.93S50,162.76,50,160 s1.12-5.26,2.93-7.07S57.24,150,60,150z"/><path d="M50,320c5.52,0,10,4.48,10,10c0,2.76-1.12,5.26-2.93,7.07C55.26,338.88,52.76,340,50,340s-5.26-1.12-7.07-2.93 C41.12,335.26,40,332.76,40,330s1.12-5.26,2.93-7.07C44.74,321.12,47.24,320,50,320z"/><path d="M210,490H100c-22.056,0-40-17.944-40-40c0-10.681,4.162-20.725,11.719-28.281C79.277,414.162,89.32,410,100,410 c5.523,0,10,4.478,10,10s-4.477,10-10,10c-5.338,0-10.359,2.082-14.139,5.861C82.082,439.641,80,444.662,80,450 c0,11.028,8.972,20,20,20h110c5.338,0,10.359-2.082,14.139-5.861C227.918,460.359,230,455.338,230,450c0-11.028-8.972-20-20-20 c-5.523,0-10-4.478-10-10s4.477-10,10-10c22.056,0,40,17.944,40,40c0,10.681-4.162,20.725-11.719,28.281 C230.723,485.838,220.68,490,210,490z"/><path d="M420,490H310c-22.056,0-40-17.944-40-40c0-10.681,4.162-20.724,11.719-28.281C289.276,414.162,299.319,410,310,410h20 c5.522,0,10,4.478,10,10s-4.478,10-10,10h-20c-5.338,0-10.359,2.081-14.139,5.861C292.081,439.641,290,444.662,290,450 c0,11.028,8.972,20,20,20h110c5.338,0,10.359-2.081,14.139-5.861c3.78-3.779,5.861-8.801,5.861-14.139c0-11.028-8.972-20-20-20 c-5.522,0-10-4.478-10-10s4.478-10,10-10c22.056,0,40,17.944,40,40c0,10.681-4.162,20.724-11.719,28.281 C440.724,485.838,430.681,490,420,490z"/><path d="M440,430H330c-22.056,0-40-17.944-40-40c0-10.681,4.162-20.724,11.719-28.281C309.276,354.162,319.319,350,330,350 c5.522,0,10,4.478,10,10s-4.478,10-10,10c-5.338,0-10.359,2.081-14.139,5.861C312.081,379.641,310,384.662,310,390 c0,11.028,8.972,20,20,20h110c5.338,0,10.359-2.081,14.139-5.861c3.78-3.779,5.861-8.801,5.861-14.139c0-11.028-8.972-20-20-20h-20 c-5.522,0-10-4.478-10-10s4.478-10,10-10h20c22.056,0,40,17.944,40,40c0,10.681-4.162,20.724-11.719,28.281 C460.724,425.838,450.681,430,440,430z"/><path d="M420,370H310c-22.056,0-40-17.944-40-40c0-10.681,4.162-20.724,11.719-28.281C289.276,294.162,299.319,290,310,290 c5.522,0,10,4.478,10,10s-4.478,10-10,10c-5.338,0-10.359,2.081-14.139,5.861C292.081,319.641,290,324.662,290,330 c0,11.028,8.972,20,20,20h110c5.338,0,10.359-2.081,14.139-5.861c3.78-3.779,5.861-8.801,5.861-14.139c0-11.028-8.972-20-20-20h-20 c-5.522,0-10-4.478-10-10s4.478-10,10-10h20c22.056,0,40,17.944,40,40c0,10.681-4.162,20.724-11.719,28.281 C440.724,365.838,430.681,370,420,370z"/><path d="M400,310H290c-22.056,0-40-17.944-40-40c0-10.68,4.162-20.723,11.719-28.281C269.275,234.162,279.319,230,290,230h20 c5.522,0,10,4.477,10,10s-4.478,10-10,10h-20c-5.338,0-10.359,2.082-14.139,5.861C272.082,259.641,270,264.662,270,270 c0,11.028,8.972,20,20,20h110c5.338,0,10.359-2.081,14.139-5.861c3.78-3.779,5.861-8.801,5.861-14.139c0-11.028-8.972-20-20-20 c-5.522,0-10-4.477-10-10s4.478-10,10-10c22.056,0,40,17.944,40,40c0,10.681-4.162,20.724-11.719,28.281 C420.724,305.838,410.681,310,400,310z"/><path d="M420,250H310c-22.056,0-40-17.944-40-40c0-10.68,4.162-20.723,11.719-28.281C289.275,174.162,299.319,170,310,170h110 c22.056,0,40,17.944,40,40c0,10.68-4.162,20.723-11.719,28.281C440.725,245.838,430.681,250,420,250z M310,190 c-5.338,0-10.359,2.082-14.139,5.861C292.082,199.641,290,204.663,290,210c0,11.028,8.972,20,20,20h110 c5.338,0,10.359-2.082,14.139-5.861c3.779-3.78,5.861-8.802,5.861-14.139c0-11.028-8.972-20-20-20H310z"/><path d="M210,430H100c-22.056,0-40-17.944-40-40c0-10.681,4.162-20.725,11.719-28.281C79.277,354.162,89.32,350,100,350h110 c22.056,0,40,17.944,40,40c0,10.681-4.162,20.725-11.719,28.281C230.723,425.838,220.68,430,210,430z M100,370 c-5.337,0-10.359,2.082-14.139,5.861C82.082,379.641,80,384.662,80,390c0,11.028,8.972,20,20,20h110 c5.337,0,10.359-2.082,14.139-5.861C227.918,400.359,230,395.338,230,390c0-11.028-8.972-20-20-20H100z"/><path d="M150,340c-44.112,0-80-35.888-80-80s35.888-80,80-80s80,35.888,80,80S194.112,340,150,340z M150,200 c-33.084,0-60,26.916-60,60s26.916,60,60,60s60-26.916,60-60S183.084,200,150,200z"/><path d="M360,130c-16.542,0-30-13.458-30-30s13.458-30,30-30s30,13.458,30,30S376.542,130,360,130z M360,90 c-5.514,0-10,4.486-10,10s4.486,10,10,10s10-4.486,10-10S365.514,90,360,90z"/><path d="M200,120c-22.056,0-40-17.944-40-40s17.944-40,40-40s40,17.944,40,40S222.056,120,200,120z M200,60 c-11.028,0-20,8.972-20,20s8.972,20,20,20s20-8.972,20-20S211.028,60,200,60z"/></svg>