<?xml version="1.0" encoding="UTF-8"?>
<svg xmlns="http://www.w3.org/2000/svg" xmlns:xlink="http://www.w3.org/1999/xlink" width="30pt" height="34.499999pt" viewBox="0 0 30 34.499999" version="1.2">
<defs>
<clipPath id="clip1">
  <path d="M 0.214844 3 L 29 3 L 29 31 L 0.214844 31 Z M 0.214844 3 "/>
</clipPath>
<clipPath id="clip2">
  <path d="M 0.214844 2.585938 L 29 2.585938 L 29 31 L 0.214844 31 Z M 0.214844 2.585938 "/>
</clipPath>
</defs>
<g id="surface1">
<g clip-path="url(#clip1)" clip-rule="nonzero">
<path style=" stroke:none;fill-rule:nonzero;fill:rgb(88.238525%,30.198669%,1.179504%);fill-opacity:1;" d="M 27.390625 11.191406 C 26.449219 8.46875 24.660156 6.101562 22.054688 4.785156 C 19.078125 3.289062 15.566406 3.144531 12.328125 3.65625 C 9.417969 4.125 6.351562 5.175781 4.167969 7.234375 C 3.023438 8.316406 2.140625 9.625 1.675781 11.136719 C 1.207031 12.65625 1.066406 14.242188 0.964844 15.820312 C 0.960938 15.882812 0.945312 15.9375 0.910156 15.976562 C 0.910156 15.988281 0.914062 16.007812 0.914062 16.023438 C 0.914062 19.117188 0.851562 22.355469 2.671875 25.019531 C 4.152344 27.1875 6.441406 28.613281 8.9375 29.328125 C 14.082031 30.800781 20.289062 29.886719 24.421875 26.359375 C 28.753906 22.660156 29.148438 16.289062 27.390625 11.191406 Z M 27.390625 11.191406 "/>
</g>
<g clip-path="url(#clip2)" clip-rule="nonzero">
<path style=" stroke:none;fill-rule:nonzero;fill:rgb(0%,0%,0%);fill-opacity:1;" d="M 28.1875 11.601562 C 27.355469 8.859375 25.796875 6.4375 23.394531 4.835938 C 20.6875 3.027344 17.238281 2.585938 14.054688 2.820312 C 11.03125 3.042969 7.941406 3.867188 5.367188 5.511719 C 4.105469 6.316406 2.976562 7.375 2.152344 8.632812 C 1.28125 9.957031 0.839844 11.484375 0.597656 13.039062 C 0.464844 13.921875 0.398438 14.808594 0.339844 15.703125 C 0.335938 15.753906 0.347656 15.808594 0.363281 15.855469 C 0.3125 15.90625 0.277344 15.984375 0.277344 16.078125 C 0.277344 17.835938 0.242188 19.605469 0.546875 21.347656 C 0.828125 22.933594 1.433594 24.441406 2.394531 25.738281 C 4.097656 28.046875 6.6875 29.4375 9.429688 30.121094 C 14.625 31.417969 20.78125 30.339844 24.890625 26.785156 C 29.21875 23.039062 29.757812 16.796875 28.1875 11.601562 Z M 24.421875 26.359375 C 20.285156 29.886719 14.082031 30.800781 8.9375 29.328125 C 6.441406 28.613281 4.152344 27.1875 2.671875 25.019531 C 0.855469 22.355469 0.914062 19.117188 0.914062 16.023438 C 0.914062 16.007812 0.914062 15.996094 0.910156 15.976562 C 0.9375 15.9375 0.960938 15.882812 0.964844 15.820312 C 1.066406 14.242188 1.207031 12.65625 1.675781 11.136719 C 2.136719 9.625 3.023438 8.316406 4.167969 7.234375 C 6.351562 5.175781 9.417969 4.125 12.328125 3.664062 C 15.574219 3.148438 19.078125 3.289062 22.054688 4.789062 C 24.660156 6.105469 26.445312 8.480469 27.390625 11.195312 C 29.148438 16.289062 28.753906 22.660156 24.421875 26.359375 Z M 24.421875 26.359375 "/>
</g>
<path style=" stroke:none;fill-rule:nonzero;fill:rgb(83.918762%,89.7995%,89.7995%);fill-opacity:1;" d="M 12.265625 19.675781 C 12.1875 19.238281 12.113281 18.800781 12 18.367188 C 11.917969 18.035156 11.398438 18.03125 11.324219 18.375 C 11.316406 18.410156 11.304688 18.445312 11.289062 18.480469 C 11.195312 18.507812 11.113281 18.578125 11.074219 18.683594 C 10.710938 18.808594 10.734375 19.421875 11.152344 19.367188 C 11.1875 19.363281 11.21875 19.355469 11.246094 19.351562 C 11.324219 19.378906 11.410156 19.378906 11.488281 19.363281 L 11.492188 19.398438 C 9.996094 19.320312 8.496094 19.378906 7 19.316406 C 6.765625 18.261719 7.015625 17.101562 7.035156 16.042969 L 9.464844 16.207031 C 9.496094 16.257812 9.53125 16.3125 9.570312 16.363281 C 9.710938 16.539062 9.914062 16.492188 10.042969 16.363281 C 10.160156 16.40625 10.300781 16.359375 10.394531 16.269531 L 10.417969 16.269531 C 10.617188 16.28125 10.75 16.09375 10.761719 15.914062 L 10.769531 15.796875 C 10.773438 15.691406 10.699219 15.539062 10.59375 15.5 C 10.558594 15.480469 10.515625 15.46875 10.480469 15.453125 C 10.429688 15.382812 10.347656 15.347656 10.261719 15.335938 C 10.25 15.328125 10.230469 15.316406 10.21875 15.3125 C 10.21875 15.304688 10.21875 15.300781 10.21875 15.292969 C 10.207031 15.03125 9.992188 14.925781 9.796875 14.964844 C 9.582031 14.839844 9.300781 15.03125 9.285156 15.28125 C 9.277344 15.351562 9.277344 15.421875 9.277344 15.492188 L 7.003906 15.335938 C 6.910156 14.054688 6.570312 12.785156 6.71875 11.507812 C 7.933594 11.488281 9.15625 11.390625 10.363281 11.449219 L 10.335938 11.839844 C 10.316406 12.0625 10.488281 12.171875 10.664062 12.171875 C 10.664062 12.183594 10.664062 12.195312 10.664062 12.214844 C 10.65625 12.667969 11.335938 12.652344 11.363281 12.207031 C 11.386719 11.878906 11.421875 11.570312 11.539062 11.261719 C 11.628906 11.019531 11.398438 10.847656 11.195312 10.824219 C 9.289062 10.582031 7.367188 10.90625 5.457031 10.78125 C 5.003906 10.753906 5.011719 11.453125 5.460938 11.484375 C 5.640625 11.496094 5.828125 11.5 6.011719 11.507812 C 5.882812 12.996094 6.296875 14.453125 6.316406 15.941406 C 6.328125 16.964844 6.105469 18.039062 6.226562 19.0625 C 5.941406 19.085938 5.652344 19.15625 5.375 19.234375 C 4.96875 19.339844 5.085938 19.894531 5.46875 19.921875 L 6.167969 19.96875 C 6.238281 19.976562 6.296875 19.964844 6.34375 19.933594 C 6.378906 19.957031 6.417969 19.976562 6.464844 19.988281 C 6.601562 20.152344 6.851562 20.140625 6.992188 20.023438 C 8.625 20.097656 10.261719 20.015625 11.894531 20.128906 C 12.171875 20.140625 12.300781 19.882812 12.265625 19.675781 Z M 17.394531 18.527344 L 17.40625 18.355469 C 17.429688 17.972656 16.800781 17.882812 16.722656 18.246094 C 16.617188 18.269531 16.519531 18.351562 16.472656 18.484375 C 16.4375 18.578125 16.414062 18.660156 16.398438 18.761719 C 16.390625 18.785156 16.390625 18.808594 16.386719 18.828125 C 16.304688 18.929688 16.273438 19.0625 16.34375 19.191406 C 16.191406 19.222656 16.035156 19.226562 15.894531 19.234375 C 15.320312 19.257812 14.707031 19.203125 14.421875 18.621094 C 14.269531 18.304688 14.261719 17.90625 14.246094 17.5625 C 14.222656 17.019531 14.195312 16.476562 14.1875 15.9375 C 14.1875 15.433594 14.210938 14.929688 14.246094 14.429688 C 14.777344 14.382812 15.308594 14.316406 15.835938 14.292969 C 16.292969 14.269531 16.273438 13.628906 15.828125 13.59375 C 15.4375 13.5625 15.046875 13.503906 14.648438 13.480469 C 14.550781 13.476562 14.433594 13.46875 14.316406 13.480469 C 14.355469 13.007812 14.398438 12.535156 14.433594 12.0625 C 14.460938 11.613281 13.761719 11.617188 13.730469 12.066406 C 13.726562 12.167969 13.71875 12.261719 13.707031 12.359375 C 13.648438 12.402344 13.609375 12.464844 13.585938 12.546875 C 13.421875 13.183594 12.960938 13.574219 12.328125 13.722656 C 12 13.796875 11.984375 14.339844 12.335938 14.398438 C 12.738281 14.46875 13.140625 14.480469 13.542969 14.46875 C 13.496094 15.1875 13.46875 15.90625 13.496094 16.632812 C 13.539062 17.5625 13.429688 18.761719 14.164062 19.457031 C 14.726562 19.988281 15.65625 20 16.375 19.894531 C 16.707031 19.847656 17.058594 19.742188 17.296875 19.496094 C 17.558594 19.214844 17.542969 18.847656 17.394531 18.527344 Z M 21.347656 17.195312 C 20.910156 16.246094 19.820312 16.492188 18.992188 16.253906 C 18.617188 16.148438 18.203125 15.761719 18.183594 15.363281 C 18.183594 15.304688 18.171875 15.339844 18.21875 15.269531 C 18.214844 15.277344 18.277344 15.230469 18.320312 15.207031 C 18.464844 15.125 18.664062 15.089844 18.835938 15.070312 C 19.132812 15.035156 19.4375 15.03125 19.734375 15.042969 C 19.808594 15.105469 19.898438 15.152344 19.992188 15.164062 C 19.972656 15.210938 19.957031 15.257812 19.957031 15.3125 L 19.933594 15.664062 C 19.921875 15.855469 20.109375 16.011719 20.289062 16.007812 C 20.492188 16.007812 20.621094 15.84375 20.632812 15.652344 L 20.65625 15.300781 C 20.664062 15.1875 20.605469 15.09375 20.523438 15.03125 C 20.546875 15.011719 20.570312 14.988281 20.59375 14.972656 C 20.820312 14.773438 20.664062 14.464844 20.425781 14.386719 C 20.320312 14.230469 20.078125 14.210938 19.914062 14.328125 C 19.886719 14.328125 19.863281 14.328125 19.832031 14.335938 C 19.15625 14.292969 18.390625 14.289062 17.859375 14.664062 C 17.484375 14.925781 17.390625 15.371094 17.558594 15.785156 C 17.769531 16.316406 18.167969 16.695312 18.695312 16.902344 C 19.113281 17.066406 19.578125 17.042969 20.015625 17.105469 C 20.449219 17.164062 20.6875 17.328125 20.78125 17.765625 C 20.839844 18.023438 20.84375 18.332031 20.785156 18.589844 C 20.726562 18.828125 20.527344 18.953125 20.324219 19.058594 C 19.949219 19.246094 19.179688 19.542969 18.800781 19.238281 C 18.769531 19.214844 18.746094 19.191406 18.730469 19.164062 C 18.722656 19.15625 18.722656 19.144531 18.71875 19.140625 C 18.722656 19.0625 18.765625 18.980469 18.78125 18.910156 C 18.824219 18.773438 18.871094 18.632812 18.898438 18.492188 C 18.902344 18.472656 18.902344 18.457031 18.910156 18.445312 C 18.910156 18.445312 18.910156 18.445312 18.902344 18.445312 C 18.910156 18.414062 18.914062 18.386719 18.921875 18.351562 C 18.960938 18.03125 18.511719 17.917969 18.320312 18.105469 L 18.214844 18.097656 C 18.027344 18.085938 17.863281 18.273438 17.871094 18.457031 C 17.875 18.679688 17.976562 18.761719 18.070312 18.898438 C 18.058594 18.945312 18.046875 18.992188 18.035156 19.039062 C 17.988281 19.339844 18.121094 19.589844 18.355469 19.777344 C 18.835938 20.15625 19.519531 20.085938 20.0625 19.917969 C 20.582031 19.753906 21.167969 19.507812 21.394531 18.976562 C 21.632812 18.445312 21.585938 17.707031 21.347656 17.195312 Z M 21.347656 17.195312 "/>
<path style=" stroke:none;fill-rule:nonzero;fill:rgb(83.918762%,89.7995%,89.7995%);fill-opacity:1;" d="M 26.015625 14.1875 C 26.011719 14.1875 26.011719 14.1875 26.015625 14.1875 C 25.96875 13.898438 25.492188 13.816406 25.339844 14.132812 C 25.328125 14.132812 25.320312 14.132812 25.308594 14.136719 C 25.113281 14.136719 24.914062 14.152344 24.726562 14.222656 C 24.347656 14.359375 24.421875 14.886719 24.820312 14.914062 C 24.902344 14.917969 24.984375 14.925781 25.066406 14.925781 C 24.703125 15.996094 24.328125 17.066406 23.867188 18.097656 C 23.621094 17.609375 23.375 17.117188 23.160156 16.613281 C 23.007812 16.257812 22.867188 15.894531 22.757812 15.523438 C 22.691406 15.289062 22.621094 15 22.6875 14.832031 C 22.710938 14.761719 22.703125 14.691406 22.679688 14.628906 C 22.75 14.429688 22.644531 14.175781 22.359375 14.160156 L 21.773438 14.121094 C 21.382812 14.089844 21.292969 14.738281 21.6875 14.808594 C 21.691406 14.808594 21.703125 14.816406 21.710938 14.816406 C 21.757812 14.898438 21.839844 14.953125 21.949219 14.953125 C 21.945312 15.152344 21.992188 15.359375 22.03125 15.546875 C 22.128906 15.964844 22.292969 16.375 22.464844 16.773438 C 22.75 17.449219 23.078125 18.105469 23.417969 18.761719 C 23.441406 18.808594 23.46875 18.835938 23.5 18.863281 C 23.464844 18.933594 23.429688 19.003906 23.386719 19.074219 C 22.78125 20.234375 21.972656 21.371094 20.878906 22.089844 C 20.632812 22.144531 20.355469 22.136719 20.125 22.183594 C 19.710938 22.265625 19.414062 22.566406 19.429688 23.003906 C 19.441406 23.21875 19.652344 23.40625 19.875 23.335938 C 20.34375 23.191406 20.773438 22.984375 21.167969 22.734375 C 21.289062 22.707031 21.410156 22.660156 21.527344 22.59375 C 21.628906 22.535156 21.679688 22.449219 21.691406 22.359375 C 22.597656 21.636719 23.3125 20.660156 23.878906 19.628906 C 24.703125 18.140625 25.246094 16.519531 25.796875 14.914062 C 25.925781 14.902344 26.058594 14.890625 26.191406 14.867188 C 26.648438 14.792969 26.457031 14.121094 26.015625 14.1875 Z M 26.015625 14.1875 "/>
</g>
</svg>
